<svg width="114" height="35" viewBox="0 0 114 35" fill="none" xmlns="http://www.w3.org/2000/svg">
<g clip-path="url(#clip0_58_125)">
<path d="M105.314 6.77756C105.314 6.77756 103.194 0 97.5982 0C92.2109 0 89.8474 6.77756 89.8474 6.77756H82.0272C82.0272 6.77756 87.762 11.2612 97.5982 11.2612C107.434 11.2612 113.169 6.77756 113.169 6.77756H105.314ZM103.959 7.54221C103.854 8.20258 101.665 9.8709 97.5982 9.8709C93.5316 9.8709 91.2724 8.51539 91.1682 7.54221C91.0291 6.32572 93.8792 1.35551 97.5982 1.35551C101.526 1.35551 104.202 6.25621 103.959 7.54221ZM93.045 19.29C88.1096 10.8093 81.332 8.09831 81.332 8.09831L85.2595 14.8759C85.2595 14.8759 80.4631 20.1241 83.2784 24.9553C85.9894 29.6127 93.0103 28.2224 93.0103 28.2224L96.9378 35C97.0073 35 98.0153 27.8054 93.045 19.29ZM93.045 26.7279C92.0719 27.4578 86.337 27.4926 84.4601 24.2949C82.479 20.8888 85.3986 16.1271 86.615 15.6753C87.2407 15.432 89.7779 16.4747 91.8286 19.9851C93.8792 23.4955 93.8444 26.137 93.045 26.7279ZM113.83 8.09831C113.83 8.09831 107.087 10.7746 102.117 19.29C97.1811 27.8054 98.189 35 98.189 35L102.117 28.2224C102.117 28.2224 109.172 29.578 111.848 24.9553C114.664 20.1241 109.867 14.8759 109.867 14.8759L113.83 8.09831ZM110.701 24.2949C108.825 27.4926 103.09 27.4578 102.117 26.7279C101.317 26.137 101.282 23.5303 103.333 19.9851C105.384 16.4747 107.921 15.432 108.547 15.6753C109.763 16.1271 112.683 20.8888 110.701 24.2949Z" fill="black"/>
<path d="M52.4131 12.547H36.8074C33.5402 12.547 33.0884 13.8677 33.0884 16.0226V20.1934C33.0884 21.4794 33.6445 22.7654 36.1122 22.7654H44.3496C46.6783 22.7654 46.1917 20.541 46.1917 20.541H38.8232V15.258H52.4479V20.2977C52.4479 24.1209 51.857 28.4308 43.9325 28.4308H36.3555C31.8719 28.4308 27.1102 27.0057 27.1102 21.5489V14.5628C27.1102 10.7396 28.7438 6.77734 35.6951 6.77734H44.5581C52.7954 6.8121 52.4131 12.547 52.4131 12.547ZM60.859 6.8121H54.6723V21.1319C54.6723 25.1984 56.7925 28.4655 64.0219 28.4655H70.9732C75.8739 28.4655 79.6971 27.3186 79.6971 20.0544V6.84686H73.5452V19.1855C73.5452 22.0008 73.3366 23.113 70.2433 23.113H64.6127C62.6663 23.113 60.8937 23.252 60.8937 19.7416C60.859 16.1617 60.859 6.8121 60.859 6.8121ZM17.1351 6.77734H7.7855C1.49454 6.77734 0 10.6701 0 15.1885V28.4308H6.18669V23.5648H18.7339V28.4308H24.9206V15.1885C24.9206 10.6701 23.426 6.77734 17.1351 6.77734ZM18.7339 18.2818H6.15194V15.1537C6.15194 12.964 7.22939 12.3037 9.00199 12.3037H15.9186C17.7607 12.3037 18.6991 13.0683 18.6991 15.0842C18.7339 17.0653 18.7339 18.2818 18.7339 18.2818Z" fill="black"/>
</g>
<defs>
<clipPath id="clip0_58_125">
<rect width="113.828" height="35" fill="white"/>
</clipPath>
</defs>
</svg>
