<svg width="30" height="30" viewBox="0 0 30 30" fill="none" xmlns="http://www.w3.org/2000/svg">
<path fill-rule="evenodd" clip-rule="evenodd" d="M13.353 11.2711C10.5682 8.98201 8.31169 6.25593 6.61603 3.07984C6.2769 2.44723 5.4878 2.20592 4.84867 2.54505C4.21606 2.88418 3.97471 3.67333 4.31384 4.31246C6.17906 7.78854 8.64432 10.7755 11.6965 13.2864C12.2508 13.7429 13.0791 13.6646 13.5356 13.1103C13.9921 12.5494 13.9073 11.7277 13.353 11.2711Z" fill="black"/>
<path fill-rule="evenodd" clip-rule="evenodd" d="M11.8679 2.35595C12.0113 4.99073 12.1418 7.62551 12.3048 10.2603C12.3505 10.9777 12.9701 11.5255 13.6875 11.4799C14.4048 11.4342 14.9527 10.8146 14.907 10.0973C14.744 7.46899 14.6135 4.84075 14.47 2.20596C14.4309 1.49053 13.8113 0.939439 13.094 0.979874C12.3766 1.02031 11.8222 1.6366 11.8679 2.35595Z" fill="black"/>
<path fill-rule="evenodd" clip-rule="evenodd" d="M21.55 2.89078C19.8805 5.40817 17.9892 7.72988 16.0849 10.0777C15.6284 10.6386 15.7131 11.4604 16.274 11.9104C16.8348 12.3669 17.6566 12.2821 18.1066 11.7212C20.0631 9.31467 22.0066 6.92118 23.7283 4.33205C24.1262 3.73205 23.9566 2.92339 23.3566 2.52556C22.7631 2.12773 21.9479 2.29078 21.55 2.89078Z" fill="black"/>
<path fill-rule="evenodd" clip-rule="evenodd" d="M28.0174 12.2494C23.4913 12.4516 18.6848 12.4581 14.1587 12.1712C13.4413 12.1321 12.8217 12.6734 12.7761 13.3973C12.7304 14.1147 13.2783 14.7342 13.9957 14.7799C18.613 15.0668 23.5174 15.0603 28.1348 14.8581C28.8522 14.8255 29.413 14.2125 29.3804 13.4951C29.3478 12.7777 28.7348 12.2168 28.0174 12.2494Z" fill="black"/>
<path fill-rule="evenodd" clip-rule="evenodd" d="M11.693 13.0776C14.4843 16.495 17.3734 19.8472 19.9626 23.4211C20.3865 24.0016 21.2017 24.132 21.7887 23.708C22.3691 23.2841 22.4995 22.4689 22.0756 21.8885C19.4538 18.2754 16.5321 14.8841 13.7082 11.4276C13.2517 10.8733 12.4299 10.7885 11.8756 11.245C11.3147 11.7015 11.2364 12.5233 11.693 13.0776Z" fill="black"/>
<path fill-rule="evenodd" clip-rule="evenodd" d="M12.5383 14.0692C13.2687 17.6301 13.4709 21.0345 13.5231 24.641C13.5296 25.3584 14.1231 25.9323 14.8405 25.9257C15.5644 25.9127 16.1383 25.3257 16.1253 24.6018C16.0731 20.8257 15.8579 17.2714 15.0949 13.541C14.9449 12.8366 14.2601 12.3801 13.5492 12.5301C12.8449 12.6735 12.3883 13.3649 12.5383 14.0692Z" fill="black"/>
<path fill-rule="evenodd" clip-rule="evenodd" d="M12.6561 13.7824C10.543 18.0085 9.45388 22.7042 7.19083 26.8389C6.84518 27.465 7.07992 28.2606 7.71253 28.6063C8.34513 28.952 9.13432 28.7171 9.47997 28.0911C11.7561 23.9302 12.8582 19.2085 14.9908 14.9498C15.3104 14.3041 15.0495 13.5215 14.4104 13.1954C13.7647 12.8759 12.9821 13.1367 12.6561 13.7824Z" fill="black"/>
<path fill-rule="evenodd" clip-rule="evenodd" d="M13.819 12.8233C9.61244 13.5668 5.41244 13.9059 1.17983 14.4081C0.462439 14.4929 -0.0462565 15.1386 0.0385261 15.856C0.123309 16.5734 0.769021 17.0821 1.48641 16.9973C5.76467 16.4951 10.0168 16.1429 14.2755 15.3929C14.9799 15.2625 15.456 14.5842 15.3321 13.8799C15.2016 13.169 14.5298 12.6929 13.819 12.8233Z" fill="black"/>
<path fill-rule="evenodd" clip-rule="evenodd" d="M16.7461 10.8411C15.8787 10.802 15.057 10.7433 14.2092 10.6193C13.4918 10.515 12.8331 11.0106 12.7287 11.7215C12.6244 12.4324 13.12 13.0976 13.8309 13.202C14.77 13.3389 15.6765 13.4041 16.6287 13.4433C17.3461 13.4759 17.9591 12.9215 17.9852 12.1976C18.0178 11.4802 17.4635 10.8737 16.7461 10.8411Z" fill="black"/>
</svg>
