<svg width="185" height="545" viewBox="0 0 185 545" fill="none" xmlns="http://www.w3.org/2000/svg">
<path fill-rule="evenodd" clip-rule="evenodd" d="M51.353 11.2711C48.5682 8.98201 46.3117 6.25593 44.616 3.07984C44.2769 2.44723 43.4878 2.20592 42.8487 2.54505C42.2161 2.88418 41.9747 3.67333 42.3138 4.31246C44.1791 7.78854 46.6443 10.7755 49.6965 13.2864C50.2508 13.7429 51.0791 13.6646 51.5356 13.1103C51.9921 12.5494 51.9073 11.7277 51.353 11.2711Z" fill="black"/>
<path fill-rule="evenodd" clip-rule="evenodd" d="M49.8679 2.35595C50.0113 4.99073 50.1418 7.62551 50.3048 10.2603C50.3505 10.9777 50.9701 11.5255 51.6875 11.4799C52.4048 11.4342 52.9527 10.8146 52.907 10.0973C52.744 7.46899 52.6135 4.84075 52.47 2.20596C52.4309 1.49053 51.8113 0.939439 51.094 0.979874C50.3766 1.02031 49.8222 1.6366 49.8679 2.35595Z" fill="black"/>
<path fill-rule="evenodd" clip-rule="evenodd" d="M59.55 2.89078C57.8805 5.40817 55.9892 7.72988 54.0849 10.0777C53.6284 10.6386 53.7131 11.4604 54.274 11.9104C54.8348 12.3669 55.6566 12.2821 56.1066 11.7212C58.0631 9.31467 60.0066 6.92118 61.7283 4.33205C62.1262 3.73205 61.9566 2.92339 61.3566 2.52556C60.7631 2.12773 59.9479 2.29078 59.55 2.89078Z" fill="black"/>
<path fill-rule="evenodd" clip-rule="evenodd" d="M66.0174 12.2494C61.4913 12.4516 56.6848 12.4581 52.1587 12.1712C51.4413 12.1321 50.8217 12.6734 50.7761 13.3973C50.7304 14.1147 51.2783 14.7342 51.9957 14.7799C56.613 15.0668 61.5174 15.0603 66.1348 14.8581C66.8522 14.8255 67.413 14.2125 67.3804 13.4951C67.3478 12.7777 66.7348 12.2168 66.0174 12.2494Z" fill="black"/>
<path fill-rule="evenodd" clip-rule="evenodd" d="M49.693 13.0776C52.4843 16.495 55.3734 19.8472 57.9626 23.4211C58.3865 24.0016 59.2017 24.132 59.7887 23.708C60.3691 23.2841 60.4995 22.4689 60.0756 21.8885C57.4538 18.2754 54.5321 14.8841 51.7082 11.4276C51.2517 10.8733 50.4299 10.7885 49.8756 11.245C49.3147 11.7015 49.2364 12.5233 49.693 13.0776Z" fill="black"/>
<path fill-rule="evenodd" clip-rule="evenodd" d="M50.5383 14.0692C51.2687 17.6301 51.4709 21.0345 51.5231 24.641C51.5296 25.3584 52.1231 25.9323 52.8405 25.9257C53.5644 25.9127 54.1383 25.3257 54.1253 24.6018C54.0731 20.8257 53.8579 17.2714 53.0949 13.541C52.9449 12.8366 52.2601 12.3801 51.5492 12.5301C50.8449 12.6735 50.3883 13.3649 50.5383 14.0692Z" fill="black"/>
<path fill-rule="evenodd" clip-rule="evenodd" d="M50.6561 13.7824C48.543 18.0085 47.4539 22.7042 45.1908 26.8389C44.8452 27.465 45.0799 28.2606 45.7125 28.6063C46.3451 28.952 47.1343 28.7171 47.48 28.0911C49.7561 23.9302 50.8582 19.2085 52.9908 14.9498C53.3104 14.3041 53.0495 13.5215 52.4104 13.1954C51.7647 12.8759 50.9821 13.1367 50.6561 13.7824Z" fill="black"/>
<path fill-rule="evenodd" clip-rule="evenodd" d="M51.819 12.8233C47.6124 13.5668 43.4124 13.9059 39.1798 14.4081C38.4624 14.4929 37.9537 15.1386 38.0385 15.856C38.1233 16.5734 38.769 17.0821 39.4864 16.9973C43.7647 16.4951 48.0168 16.1429 52.2755 15.3929C52.9799 15.2625 53.456 14.5842 53.3321 13.8799C53.2016 13.169 52.5298 12.6929 51.819 12.8233Z" fill="black"/>
<path fill-rule="evenodd" clip-rule="evenodd" d="M54.7461 10.8411C53.8787 10.802 53.057 10.7433 52.2092 10.6193C51.4918 10.515 50.8331 11.0106 50.7287 11.7215C50.6244 12.4324 51.12 13.0976 51.8309 13.202C52.77 13.3389 53.6765 13.4041 54.6287 13.4433C55.3461 13.4759 55.9591 12.9215 55.9852 12.1976C56.0178 11.4802 55.4635 10.8737 54.7461 10.8411Z" fill="black"/>
<rect x="123.5" y="422.5" width="61" height="61" rx="9.5" fill="#C5B6F0" stroke="black"/>
<g clip-path="url(#clip0_138_9)">
<path d="M170 453.604C170 444.768 162.836 437.604 154 437.604C145.164 437.604 138 444.768 138 453.604C138 461.591 143.851 468.21 151.5 469.41V458.23H147.437V453.603H151.5V450.08C151.5 446.071 153.889 443.855 157.544 443.855C159.293 443.855 161.125 444.168 161.125 444.168V448.106H159.107C157.119 448.106 156.499 449.339 156.499 450.604V453.604H160.936L160.227 458.231H156.499V469.411C164.149 468.21 170 461.59 170 453.604Z" fill="black"/>
</g>
<rect x="0.5" y="422.5" width="61" height="61" rx="9.5" fill="#EBFFDB" stroke="black"/>
<g clip-path="url(#clip1_138_9)">
<path d="M35.2921 469.479L44.9135 467.398C44.9135 467.398 41.4415 443.914 41.4135 443.758C41.3895 443.603 41.2615 443.502 41.1321 443.502C41.0028 443.502 38.5601 443.32 38.5601 443.32C38.5601 443.32 36.8601 441.622 36.6415 441.439C36.5815 441.39 36.5415 441.363 36.4801 441.34L35.2615 469.479H35.2921ZM30.4561 452.58C30.4561 452.58 29.3761 452.015 28.0908 452.015C26.1614 452.015 26.0854 453.223 26.0854 453.536C26.0854 455.179 30.4055 455.823 30.4055 459.708C30.4055 462.768 28.4854 464.722 25.8641 464.722C22.7254 464.722 21.1441 462.768 21.1441 462.768L22.0054 459.987C22.0054 459.987 23.6654 461.408 25.0454 461.408C25.9454 461.408 26.3454 460.682 26.3454 460.166C26.3454 458.007 22.8068 457.907 22.8068 454.354C22.7614 451.371 24.9014 448.466 29.2428 448.466C30.9188 448.466 31.7428 448.947 31.7428 448.947L30.4828 452.567L30.4561 452.58ZM29.7361 438.614C29.9175 438.614 30.0975 438.664 30.2761 438.794C28.9641 439.414 27.5241 440.979 26.9321 444.116C26.0574 444.4 25.2081 444.656 24.4134 444.887C25.1054 442.507 26.7774 438.627 29.7361 438.627V438.614ZM31.3828 442.546V442.726C30.3775 443.035 29.2721 443.371 28.1908 443.707C28.8121 441.338 29.9681 440.18 30.9708 439.746C31.2281 440.414 31.3828 441.314 31.3828 442.546ZM32.1015 439.567C33.0268 439.666 33.6228 440.723 34.0068 441.907C33.5415 442.059 33.0268 442.215 32.4628 442.395V442.059C32.4628 441.056 32.3348 440.231 32.1015 439.564V439.567ZM36.0908 441.286C36.0641 441.286 36.0108 441.314 35.9868 441.314C35.9628 441.314 35.6015 441.414 35.0348 441.594C34.4708 439.95 33.4668 438.434 31.6908 438.434H31.5375C31.0228 437.786 30.4015 437.507 29.8628 437.507C25.7214 437.507 23.7428 442.676 23.1228 445.302C21.5308 445.788 20.3721 446.15 20.2428 446.2C19.3428 446.484 19.3174 446.51 19.2134 447.36C19.1134 447.976 16.7734 466.111 16.7734 466.111L34.8548 469.507L36.0908 441.286Z" fill="black"/>
</g>
<rect x="62" y="483" width="62" height="62" rx="10" fill="black"/>
<g clip-path="url(#clip2_138_9)">
<path d="M93.5426 498.027C95.2892 498 97.0226 498.013 98.7559 498C98.8626 500.04 99.5959 502.12 101.089 503.56C102.583 505.04 104.689 505.72 106.743 505.947V511.32C104.823 511.253 102.889 510.853 101.143 510.027C100.383 509.68 99.6759 509.24 98.9826 508.787C98.9692 512.68 98.9959 516.573 98.9559 520.453C98.8492 522.32 98.2359 524.173 97.1559 525.707C95.4092 528.267 92.3826 529.933 89.2759 529.987C87.3693 530.093 85.4626 529.573 83.8359 528.613C81.1426 527.027 79.2493 524.12 78.9693 521C78.9426 520.333 78.9293 519.667 78.9559 519.013C79.1959 516.48 80.4493 514.053 82.3959 512.4C84.6093 510.48 87.7026 509.56 90.5959 510.107C90.6226 512.08 90.5426 514.053 90.5426 516.027C89.2226 515.6 87.6759 515.72 86.5159 516.52C85.6759 517.067 85.0359 517.907 84.7026 518.853C84.4226 519.533 84.5026 520.28 84.5159 521C84.8359 523.187 86.9426 525.027 89.1826 524.827C90.6759 524.813 92.1026 523.947 92.8759 522.68C93.1292 522.24 93.4092 521.787 93.4226 521.267C93.5559 518.88 93.5026 516.507 93.5159 514.12C93.5292 508.747 93.5026 503.387 93.5426 498.027Z" fill="white"/>
</g>
<defs>
<clipPath id="clip0_138_9">
<rect width="32" height="32" fill="white" transform="translate(138 437.507)"/>
</clipPath>
<clipPath id="clip1_138_9">
<rect width="29.3333" height="32" fill="white" transform="translate(16 437.507)"/>
</clipPath>
<clipPath id="clip2_138_9">
<rect width="29.3333" height="32" fill="white" transform="translate(78 498)"/>
</clipPath>
</defs>
</svg>
