<svg width="115" height="76" viewBox="0 0 115 76" fill="none" xmlns="http://www.w3.org/2000/svg">
<rect x="76.3589" y="0.418004" width="37.5857" height="37.5857" rx="5.85351" fill="#C5B6F0" stroke="black" stroke-width="0.616159"/>
<g clip-path="url(#clip0_186_10)">
<path d="M105.01 19.5831C105.01 14.1388 100.596 9.72461 95.1515 9.72461C89.7071 9.72461 85.293 14.1388 85.293 19.5831C85.293 24.5042 88.8979 28.5824 93.6111 29.3217V22.4331H91.1079V19.5823H93.6111V17.4118C93.6111 14.9414 95.0833 13.576 97.3352 13.576C98.413 13.576 99.5418 13.7691 99.5418 13.7691V16.1951H98.298C97.0731 16.1951 96.6911 16.955 96.6911 17.7347V19.5831H99.4252L98.9881 22.4339H96.6911V29.3226C101.405 28.5824 105.01 24.5034 105.01 19.5831Z" fill="black"/>
</g>
<rect x="0.569798" y="0.418004" width="37.5857" height="37.5857" rx="5.85351" fill="#EBFFDB" stroke="black" stroke-width="0.616159"/>
<g clip-path="url(#clip1_186_10)">
<path d="M22.0081 29.3644L27.9364 28.0819C27.9364 28.0819 25.7971 13.6121 25.7798 13.516C25.765 13.4207 25.6862 13.3582 25.6065 13.3582C25.5268 13.3582 24.0217 13.2465 24.0217 13.2465C24.0217 13.2465 22.9743 12.1998 22.8395 12.0873C22.8025 12.0569 22.7779 12.0405 22.7401 12.0265L21.9892 29.3644H22.0081ZM19.0284 18.9521C19.0284 18.9521 18.3629 18.6038 17.5709 18.6038C16.3822 18.6038 16.3353 19.3481 16.3353 19.5412C16.3353 20.5533 18.9972 20.9501 18.9972 23.3441C18.9972 25.2295 17.8141 26.4331 16.199 26.4331C14.265 26.4331 13.2907 25.2295 13.2907 25.2295L13.8214 23.5158C13.8214 23.5158 14.8442 24.3916 15.6945 24.3916C16.2491 24.3916 16.4955 23.9438 16.4955 23.6259C16.4955 22.2958 14.3151 22.2342 14.3151 20.0448C14.2872 18.207 15.6058 16.4168 18.2807 16.4168C19.3134 16.4168 19.8212 16.7134 19.8212 16.7134L19.0448 18.9439L19.0284 18.9521ZM18.5847 10.3464C18.6965 10.3464 18.8074 10.3777 18.9175 10.4573C18.109 10.8394 17.2218 11.8039 16.857 13.7369C16.3181 13.9119 15.7948 14.0697 15.3051 14.2118C15.7315 12.7453 16.7617 10.3546 18.5847 10.3546V10.3464ZM19.5993 12.7692V12.8801C18.9799 13.0707 18.2988 13.2777 17.6325 13.4847C18.0154 12.0249 18.7277 11.3117 19.3455 11.0439C19.504 11.4555 19.5993 12.0101 19.5993 12.7692ZM20.0422 10.9338C20.6123 10.9946 20.9795 11.6461 21.2161 12.3756C20.9294 12.4693 20.6123 12.5654 20.2648 12.6763V12.4693C20.2648 11.8515 20.1859 11.343 20.0422 10.9322V10.9338ZM22.5002 11.9928C22.4838 11.9928 22.4509 12.0101 22.4361 12.0101C22.4214 12.0101 22.1987 12.0717 21.8496 12.1826C21.502 11.1696 20.8834 10.2355 19.7891 10.2355H19.6946C19.3775 9.83625 18.9947 9.66455 18.6628 9.66455C16.111 9.66455 14.8919 12.8497 14.5099 14.4673C13.5289 14.7672 12.815 14.9898 12.7353 15.021C12.1808 15.196 12.1652 15.2116 12.1011 15.7358C12.0395 16.1153 10.5977 27.2892 10.5977 27.2892L21.7386 29.3816L22.5002 11.9928Z" fill="black"/>
</g>
<rect x="38.4629" y="38" width="38" height="38" rx="6.16159" fill="black"/>
<g clip-path="url(#clip2_186_10)">
<path d="M57.7928 47.2099C58.8634 47.1935 59.9257 47.2017 60.9881 47.1935C61.0535 48.4439 61.503 49.7187 62.4182 50.6013C63.3335 51.5084 64.6247 51.9252 65.8832 52.0641V55.3574C64.7064 55.3166 63.5215 55.0714 62.4509 54.5647C61.9851 54.3523 61.552 54.0826 61.127 53.8047C61.1189 56.191 61.1352 58.5772 61.1107 60.9553C61.0453 62.0994 60.6694 63.2353 60.0075 64.1751C58.9369 65.7441 57.0819 66.7656 55.1778 66.7983C54.0092 66.8637 52.8406 66.5449 51.8436 65.9566C50.1929 64.9841 49.0324 63.2026 48.8608 61.2903C48.8445 60.8817 48.8363 60.4731 48.8527 60.0727C48.9998 58.52 49.7679 57.0327 50.961 56.0194C52.3176 54.8426 54.2135 54.2787 55.9869 54.6138C56.0032 55.8232 55.9542 57.0327 55.9542 58.2421C55.1451 57.9806 54.1972 58.0542 53.4862 58.5445C52.9714 58.8796 52.5791 59.3944 52.3748 59.9746C52.2032 60.3914 52.2522 60.849 52.2604 61.2903C52.4565 62.6305 53.7477 63.7583 55.1206 63.6357C56.0359 63.6275 56.9103 63.0963 57.3842 62.32C57.5395 62.0503 57.7111 61.7725 57.7193 61.4538C57.801 59.991 57.7683 58.5363 57.7765 57.0735C57.7847 53.7802 57.7683 50.495 57.7928 47.2099Z" fill="white"/>
</g>
<defs>
<clipPath id="clip0_186_10">
<rect width="19.7171" height="19.7171" fill="white" transform="translate(85.293 9.66461)"/>
</clipPath>
<clipPath id="clip1_186_10">
<rect width="18.074" height="19.7171" fill="white" transform="translate(10.1191 9.66455)"/>
</clipPath>
<clipPath id="clip2_186_10">
<rect width="17.9785" height="19.6129" fill="white" transform="translate(48.2676 47.1935)"/>
</clipPath>
</defs>
</svg>
