<svg width="185" height="123" viewBox="0 0 185 123" fill="none" xmlns="http://www.w3.org/2000/svg">
<rect x="123.5" y="0.5" width="61" height="61" rx="9.5" fill="#C5B6F0" stroke="black"/>
<g clip-path="url(#clip0_138_8)">
<path d="M170 31.6042C170 22.7682 162.836 15.6042 154 15.6042C145.164 15.6042 138 22.7682 138 31.6042C138 39.5908 143.851 46.2095 151.5 47.4095V36.2295H147.437V31.6028H151.5V28.0802C151.5 24.0709 153.889 21.8549 157.544 21.8549C159.293 21.8549 161.125 22.1682 161.125 22.1682V26.1055H159.107C157.119 26.1055 156.499 27.3389 156.499 28.6042V31.6042H160.936L160.227 36.2308H156.499V47.4108C164.149 46.2095 170 39.5895 170 31.6042Z" fill="black"/>
</g>
<rect x="0.5" y="0.5" width="61" height="61" rx="9.5" fill="#EBFFDB" stroke="black"/>
<g clip-path="url(#clip1_138_8)">
<path d="M35.2921 47.4788L44.9135 45.3975C44.9135 45.3975 41.4415 21.9135 41.4135 21.7575C41.3895 21.6028 41.2615 21.5015 41.1321 21.5015C41.0028 21.5015 38.5601 21.3202 38.5601 21.3202C38.5601 21.3202 36.8601 19.6215 36.6415 19.4388C36.5815 19.3895 36.5415 19.3628 36.4801 19.3402L35.2615 47.4788H35.2921ZM30.4561 30.5802C30.4561 30.5802 29.3761 30.0148 28.0908 30.0148C26.1614 30.0148 26.0854 31.2228 26.0854 31.5362C26.0854 33.1788 30.4055 33.8228 30.4055 37.7082C30.4055 40.7682 28.4854 42.7215 25.8641 42.7215C22.7254 42.7215 21.1441 40.7682 21.1441 40.7682L22.0054 37.9868C22.0054 37.9868 23.6654 39.4082 25.0454 39.4082C25.9454 39.4082 26.3454 38.6815 26.3454 38.1655C26.3454 36.0068 22.8068 35.9068 22.8068 32.3535C22.7614 29.3708 24.9014 26.4655 29.2428 26.4655C30.9188 26.4655 31.7428 26.9468 31.7428 26.9468L30.4828 30.5668L30.4561 30.5802ZM29.7361 16.6135C29.9175 16.6135 30.0975 16.6642 30.2761 16.7935C28.9641 17.4135 27.5241 18.9788 26.9321 22.1162C26.0574 22.4002 25.2081 22.6562 24.4134 22.8868C25.1054 20.5068 26.7774 16.6268 29.7361 16.6268V16.6135ZM31.3828 20.5455V20.7255C30.3775 21.0348 29.2721 21.3708 28.1908 21.7068C28.8121 19.3375 29.9681 18.1802 30.9708 17.7455C31.2281 18.4135 31.3828 19.3135 31.3828 20.5455ZM32.1015 17.5668C33.0268 17.6655 33.6228 18.7228 34.0068 19.9068C33.5415 20.0588 33.0268 20.2148 32.4628 20.3948V20.0588C32.4628 19.0562 32.3348 18.2308 32.1015 17.5642V17.5668ZM36.0908 19.2855C36.0641 19.2855 36.0108 19.3135 35.9868 19.3135C35.9628 19.3135 35.6015 19.4135 35.0348 19.5935C34.4708 17.9495 33.4668 16.4335 31.6908 16.4335H31.5375C31.0228 15.7855 30.4015 15.5068 29.8628 15.5068C25.7214 15.5068 23.7428 20.6762 23.1228 23.3015C21.5308 23.7882 20.3721 24.1495 20.2428 24.2002C19.3428 24.4842 19.3174 24.5095 19.2134 25.3602C19.1134 25.9762 16.7734 44.1108 16.7734 44.1108L34.8548 47.5068L36.0908 19.2855Z" fill="black"/>
</g>
<rect x="62" y="61" width="62" height="62" rx="10" fill="black"/>
<g clip-path="url(#clip2_138_8)">
<path d="M93.5426 76.0267C95.2892 76 97.0226 76.0133 98.7559 76C98.8626 78.04 99.5959 80.12 101.089 81.56C102.583 83.04 104.689 83.72 106.743 83.9467V89.32C104.823 89.2533 102.889 88.8533 101.143 88.0267C100.383 87.68 99.6759 87.24 98.9826 86.7867C98.9692 90.68 98.9959 94.5733 98.9559 98.4533C98.8492 100.32 98.2359 102.173 97.1559 103.707C95.4092 106.267 92.3826 107.933 89.2759 107.987C87.3693 108.093 85.4626 107.573 83.8359 106.613C81.1426 105.027 79.2493 102.12 78.9693 99C78.9426 98.3333 78.9293 97.6667 78.9559 97.0133C79.1959 94.48 80.4493 92.0533 82.3959 90.4C84.6093 88.48 87.7026 87.56 90.5959 88.1067C90.6226 90.08 90.5426 92.0533 90.5426 94.0267C89.2226 93.6 87.6759 93.72 86.5159 94.52C85.6759 95.0667 85.0359 95.9067 84.7026 96.8533C84.4226 97.5333 84.5026 98.28 84.5159 99C84.8359 101.187 86.9426 103.027 89.1826 102.827C90.6759 102.813 92.1026 101.947 92.8759 100.68C93.1292 100.24 93.4092 99.7867 93.4226 99.2667C93.5559 96.88 93.5026 94.5067 93.5159 92.12C93.5292 86.7467 93.5026 81.3867 93.5426 76.0267Z" fill="white"/>
</g>
<defs>
<clipPath id="clip0_138_8">
<rect width="32" height="32" fill="white" transform="translate(138 15.5068)"/>
</clipPath>
<clipPath id="clip1_138_8">
<rect width="29.3333" height="32" fill="white" transform="translate(16 15.5068)"/>
</clipPath>
<clipPath id="clip2_138_8">
<rect width="29.3333" height="32" fill="white" transform="translate(78 76)"/>
</clipPath>
</defs>
</svg>
