<svg width="223" height="42" viewBox="0 0 223 42" fill="none" xmlns="http://www.w3.org/2000/svg">
<g clip-path="url(#clip0_113_5)">
<path d="M38.4537 5.24704V36.7448C38.4688 39.6275 36.1442 41.9767 33.2615 41.992C33.0464 41.9932 32.8315 41.9809 32.618 41.9556C29.944 41.5601 27.9845 39.2329 28.0496 36.5306V5.46089C27.985 2.75574 29.9494 0.427539 32.6271 0.0358886C35.4903 -0.299236 38.0832 1.75019 38.4184 4.61354C38.4429 4.82372 38.4548 5.03529 38.4537 5.24687V5.24704ZM5.71572 31.5961C2.84275 31.5961 0.513672 33.9253 0.513672 36.7981C0.513672 39.6711 2.84275 42.0002 5.71572 42.0002C8.5887 42.0002 10.9178 39.6711 10.9178 36.7981C10.9178 33.9252 8.58852 31.5961 5.71572 31.5961ZM19.4932 15.8289C19.4632 15.8289 19.4333 15.8289 19.4034 15.8295C16.5167 15.9877 14.2771 18.409 14.3441 21.2993V35.2723C14.3441 39.0646 16.0127 41.3667 18.4575 41.8576C21.2782 42.4291 24.0281 40.606 24.5997 37.7853C24.6697 37.4399 24.7047 37.0883 24.7034 36.7357V21.0583C24.7087 18.1753 22.3759 15.8342 19.4932 15.8289Z" fill="#0A0F0D"/>
</g>
<g clip-path="url(#clip1_113_5)">
<path d="M222.75 21.1279C222.75 9.53068 213.347 0.12793 201.75 0.12793C190.153 0.12793 180.75 9.53068 180.75 21.1279C180.75 31.6104 188.429 40.2974 198.469 41.8724V27.1987H193.137V21.1262H198.469V16.5027C198.469 11.2404 201.605 8.33193 206.402 8.33193C208.698 8.33193 211.102 8.74318 211.102 8.74318V13.9109H208.452C205.843 13.9109 205.029 15.5297 205.029 17.1904V21.1279H210.854L209.923 27.2004H205.029V41.8742C215.071 40.2974 222.75 31.6087 222.75 21.1279Z" fill="#0A0F0D"/>
</g>
<g clip-path="url(#clip2_113_5)">
<path d="M142.65 0.035C144.943 0 147.218 0.0175 149.493 0C149.633 2.6775 150.595 5.4075 152.555 7.2975C154.515 9.24 157.28 10.1325 159.975 10.43V17.4825C157.455 17.395 154.918 16.87 152.625 15.785C151.628 15.33 150.7 14.7525 149.79 14.1575C149.773 19.2675 149.808 24.3775 149.755 29.47C149.615 31.92 148.81 34.3525 147.393 36.365C145.1 39.725 141.128 41.9125 137.05 41.9825C134.548 42.1225 132.045 41.44 129.91 40.18C126.375 38.0975 123.89 34.2825 123.523 30.1875C123.488 29.3125 123.47 28.4375 123.505 27.58C123.82 24.255 125.465 21.07 128.02 18.9C130.925 16.38 134.985 15.1725 138.783 15.89C138.818 18.48 138.713 21.07 138.713 23.66C136.98 23.1 134.95 23.2575 133.428 24.3075C132.325 25.025 131.485 26.1275 131.048 27.37C130.68 28.2625 130.785 29.2425 130.803 30.1875C131.223 33.0575 133.988 35.4725 136.928 35.21C138.888 35.1925 140.76 34.055 141.775 32.3925C142.108 31.815 142.475 31.22 142.493 30.5375C142.668 27.405 142.598 24.29 142.615 21.1575C142.633 14.105 142.598 7.07 142.65 0.035Z" fill="#0A0F0D"/>
</g>
<g clip-path="url(#clip3_113_5)">
<path d="M80.0927 1.38749C81.8252 1.38749 87.7 1.87049 90.4702 8.07424C91.396 10.162 91.1755 13.7075 90.9935 16.5565L90.9882 16.6615C90.9672 16.9765 90.9497 17.2652 90.9357 17.554C91.067 17.6328 91.291 17.7115 91.6375 17.7115C92.1625 17.6835 92.7907 17.5015 93.4452 17.1847C93.734 17.0307 94.0472 17.0027 94.2572 17.0027C94.5757 17.0027 94.8855 17.0535 95.148 17.1602C95.9355 17.421 96.4325 17.9985 96.4325 18.6268C96.4587 19.4125 95.75 20.095 94.3097 20.6708C94.154 20.7215 93.944 20.802 93.7077 20.879C92.9202 21.1153 91.7145 21.509 91.375 22.2965C91.2175 22.6885 91.2682 23.2135 91.585 23.8155L91.6112 23.8418C91.7162 24.0798 94.2817 29.923 99.9955 30.8663C100.442 30.9433 100.757 31.3388 100.73 31.757C100.73 31.8883 100.704 32.0178 100.652 32.1508C100.232 33.1465 98.424 33.8798 95.1462 34.375C95.043 34.5343 94.9362 35.0313 94.8592 35.3725C94.8085 35.6858 94.7297 36.0025 94.6247 36.3403C94.4917 36.8145 94.1522 37.049 93.6535 37.049H93.601C93.3647 37.049 93.0532 36.9948 92.6595 36.9195C92.0295 36.7883 91.3207 36.6833 90.4317 36.6833C89.9067 36.6833 89.3835 36.7095 88.834 36.8128C87.784 36.9948 86.8687 37.6248 85.8187 38.3598C84.326 39.408 82.6232 40.6138 80.0542 40.6138C79.9492 40.6138 79.846 40.5875 79.7392 40.5875H79.4785C76.9095 40.5875 75.2312 39.4063 73.7402 38.3335C72.6919 37.5985 71.8029 36.9703 70.7529 36.7865C70.2034 36.7078 69.6522 36.657 69.1289 36.657C68.1839 36.657 67.4524 36.8128 66.9029 36.9178C66.5337 36.993 66.2187 37.0473 65.9579 37.0473C65.3034 37.0473 65.0427 36.6553 64.9377 36.3123C64.8309 35.9763 64.7802 35.6315 64.7014 35.32C64.6209 35.0033 64.5177 34.4555 64.4109 34.3225C61.0544 33.934 59.2484 33.199 58.8302 32.177C58.7759 32.0668 58.7392 31.9145 58.7339 31.7833C58.7077 31.358 59.0227 30.9695 59.4689 30.8925C65.1809 29.9475 67.7464 24.1043 67.8532 23.8575L67.8812 23.8068C68.1962 23.203 68.2732 22.678 68.0894 22.286C67.7482 21.5265 66.5424 21.1345 65.7584 20.8703C65.5467 20.8195 65.3384 20.7408 65.1529 20.662C63.2157 19.9008 62.9532 19.0345 63.0582 18.4343C63.2157 17.596 64.2377 17.0465 65.1022 17.0465C65.3577 17.0465 65.5747 17.0972 65.7724 17.176C66.5074 17.5155 67.1532 17.701 67.7044 17.701C68.1139 17.701 68.3764 17.596 68.5182 17.5173L68.4377 16.5215C68.2662 13.676 68.0439 10.1322 68.9749 8.05674C71.6682 1.88449 77.5255 1.41199 79.2545 1.41199L79.9877 1.38574H80.0927V1.38749Z" fill="#0A0F0D"/>
</g>
<defs>
<clipPath id="clip0_113_5">
<rect width="38.5" height="42" fill="white"/>
</clipPath>
<clipPath id="clip1_113_5">
<rect width="42" height="42" fill="white" transform="translate(180.75)"/>
</clipPath>
<clipPath id="clip2_113_5">
<rect width="38.5" height="42" fill="white" transform="translate(122.25)"/>
</clipPath>
<clipPath id="clip3_113_5">
<rect width="43.75" height="42" fill="white" transform="translate(58.5)"/>
</clipPath>
</defs>
</svg>
