<svg width="130" height="42" viewBox="0 0 130 42" fill="none" xmlns="http://www.w3.org/2000/svg">
<g clip-path="url(#clip0_113_6)">
<path fill-rule="evenodd" clip-rule="evenodd" d="M127.783 20.9845C127.783 32.562 118.397 41.9472 106.82 41.9472C95.2427 41.9472 85.8574 32.562 85.8574 20.9845C85.8574 9.40725 95.2427 0.0219727 106.82 0.0219727C118.397 0.0219727 127.783 9.40725 127.783 20.9845ZM98.4312 29.2781H108.821C108.98 29.2781 109.06 29.0793 108.98 28.94L100.585 18.5392C100.465 18.4001 100.266 18.4596 100.226 18.6187L98.2118 29.0196C98.1919 29.1589 98.2916 29.2781 98.4312 29.2781ZM98.2359 13.5783H108.625C108.765 13.5783 108.865 13.6976 108.845 13.8369L106.831 24.2378C106.791 24.397 106.591 24.4565 106.472 24.3174L98.0764 13.8965C97.9766 13.7772 98.0564 13.5783 98.2359 13.5783ZM109.682 13.7374C109.702 13.6579 109.781 13.5783 109.881 13.5783H117.359C117.479 13.5783 117.599 13.6976 117.579 13.817L116.183 20.5785C116.163 20.6779 116.083 20.7376 115.983 20.7376H115.764C112.075 20.7376 109.143 17.3369 109.682 13.7374Z" fill="#0A0F0D"/>
</g>
<path d="M2.04888 18.6713L30.2954 0.920756C30.8976 0.588567 31.5817 0.413574 32.2781 0.413574C32.9748 0.413574 33.6589 0.588567 34.2608 0.920756L62.5076 18.6713C62.8882 18.8464 63.209 19.1196 63.4337 19.4597C63.6581 19.7997 63.7773 20.1929 63.7773 20.5942C63.7773 20.9955 63.6581 21.3887 63.4337 21.7287C63.209 22.0688 62.8882 22.342 62.5076 22.5171L58.7205 24.8839C55.8955 20.6504 51.9879 17.1633 47.3608 14.747C42.7337 12.3306 37.5378 11.0636 32.2558 11.0636C26.974 11.0636 21.778 12.3306 17.1509 14.747C12.5239 17.1633 8.61622 20.6504 5.7913 24.8839L2.00425 22.5171C1.62982 22.3347 1.31636 22.0569 1.09899 21.715C0.881622 21.373 0.768942 20.9804 0.773575 20.5811C0.778208 20.1818 0.899974 19.7917 1.12523 19.4543C1.35048 19.117 1.67031 18.8458 2.04888 18.6713ZM32.2561 18.4599C28.2671 18.4685 24.3454 19.434 20.8556 21.2665C17.3658 23.0991 14.4213 25.7391 12.2961 28.941L18.8008 33.0408C20.1941 30.8486 22.1609 29.035 24.5105 27.7763C26.8601 26.5174 29.5129 25.8559 32.2114 25.8559C34.9097 25.8559 37.5625 26.5174 39.9121 27.7763C42.2618 29.035 44.2284 30.8486 45.6218 33.0408L52.1265 28.941C50.0323 25.7312 47.1067 23.0829 43.6286 21.2483C40.1507 19.4137 36.2356 18.4539 32.2561 18.4599ZM32.2561 33.2943C30.8501 33.3033 29.4715 33.6634 28.2592 34.3386C27.0467 35.0137 26.0434 35.98 25.3501 37.1402L29.7164 39.845C30.4267 40.4149 31.3258 40.7291 32.2561 40.7325C33.1874 40.7365 34.0894 40.4212 34.7955 39.845L39.1616 37.1402C38.4742 35.9753 37.4722 35.0051 36.2584 34.3291C35.0449 33.6532 33.6633 33.2962 32.2561 33.2943Z" fill="#0A0F0D"/>
<defs>
<clipPath id="clip0_113_6">
<rect width="43.75" height="42" fill="white" transform="translate(85.625)"/>
</clipPath>
</defs>
</svg>
