<svg width="144" height="46" viewBox="0 0 144 46" fill="none" xmlns="http://www.w3.org/2000/svg">
<path d="M66.4159 36.4436C64.7001 36.4436 63.1581 36.0717 61.7901 35.3279C60.4453 34.5609 59.3671 33.4568 58.5556 32.0157C57.7672 30.5513 57.373 28.7616 57.373 26.6464V20.8587C57.373 17.6976 58.2541 15.2803 60.0163 13.6067C61.7785 11.9099 64.1436 11.0615 67.1115 11.0615C70.0794 11.0615 72.3633 11.8634 73.9632 13.4672C75.5631 15.0478 76.363 17.1862 76.363 19.8825V20.022H72.259V19.743C72.259 18.8133 72.0735 17.9765 71.7025 17.2327C71.3315 16.4889 70.7634 15.9078 69.9982 15.4894C69.2331 15.0478 68.2708 14.827 67.1115 14.827C65.3957 14.827 64.0392 15.3616 63.0422 16.4308C62.0684 17.4768 61.5814 18.9295 61.5814 20.789V26.7161C61.5814 28.5524 62.0684 30.0167 63.0422 31.1092C64.0392 32.2016 65.4189 32.7479 67.1811 32.7479C68.9432 32.7479 70.2301 32.2714 71.0417 31.3184C71.8532 30.3654 72.259 29.1451 72.259 27.6575V27.2391H66.1029V23.6828H76.363V35.9555H72.5372V33.5498H71.9459C71.7604 33.9682 71.4706 34.4098 71.0764 34.8747C70.6823 35.3163 70.1142 35.6882 69.3722 35.9904C68.6534 36.2925 67.668 36.4436 66.4159 36.4436Z" fill="#0A0F0D"/>
<path d="M81.0977 42.9286V18.7319H85.0279V20.9982H85.6192C86.0133 20.2776 86.6394 19.6384 87.4973 19.0806C88.3784 18.5227 89.6305 18.2438 91.2535 18.2438C92.6448 18.2438 93.9316 18.5925 95.1141 19.2898C96.3199 19.9639 97.2821 20.9633 98.0009 22.2882C98.7197 23.6131 99.0791 25.2053 99.0791 27.0648V27.6226C99.0791 29.4821 98.7197 31.0743 98.0009 32.3992C97.2821 33.7241 96.3314 34.7352 95.1489 35.4325C93.9664 36.1066 92.6679 36.4436 91.2535 36.4436C90.1638 36.4436 89.2479 36.3158 88.5059 36.0601C87.7871 35.8044 87.1959 35.4674 86.7321 35.049C86.2916 34.6306 85.9438 34.2122 85.6887 33.7938H85.0975V42.9286H81.0977ZM90.071 32.9571C91.5318 32.9571 92.7259 32.4922 93.6534 31.5624C94.604 30.6095 95.0794 29.2613 95.0794 27.518V27.1694C95.0794 25.4029 94.604 24.0547 93.6534 23.125C92.7027 22.1952 91.5086 21.7304 90.071 21.7304C88.6334 21.7304 87.4277 22.1952 86.4539 23.125C85.5032 24.0547 85.0279 25.4029 85.0279 27.1694V27.518C85.0279 29.2613 85.5032 30.6095 86.4539 31.5624C87.4277 32.4922 88.6334 32.9571 90.071 32.9571Z" fill="#0A0F0D"/>
<path d="M103.311 35.9555V18.7319H107.241V20.7193H107.832C108.087 19.9987 108.516 19.4757 109.119 19.1503C109.722 18.8249 110.441 18.6622 111.276 18.6622H113.362V22.2185H111.206C110.047 22.2185 109.108 22.5323 108.389 23.1599C107.67 23.7642 107.311 24.7056 107.311 25.984V35.9555H103.311Z" fill="#0A0F0D"/>
<path d="M116.897 35.9555V18.7319H120.897V35.9555H116.897ZM118.879 16.5354C118.161 16.5354 117.534 16.303 117.001 15.8381C116.491 15.35 116.236 14.7108 116.236 13.9205C116.236 13.1302 116.491 12.5026 117.001 12.0378C117.534 11.5496 118.161 11.3056 118.879 11.3056C119.644 11.3056 120.271 11.5496 120.757 12.0378C121.268 12.5026 121.523 13.1302 121.523 13.9205C121.523 14.7108 121.268 15.35 120.757 15.8381C120.271 16.303 119.644 16.5354 118.879 16.5354Z" fill="#0A0F0D"/>
<path d="M125.131 27.4135V26.8905C125.131 25.0775 125.49 23.5318 126.209 22.2534C126.928 20.9517 127.89 19.9639 129.096 19.2898C130.301 18.5925 131.623 18.2438 133.061 18.2438C134.684 18.2438 135.913 18.5344 136.747 19.1155C137.605 19.6965 138.231 20.3241 138.625 20.9982H139.217V18.7319H143.112V39.2329C143.112 40.3718 142.788 41.2667 142.138 41.9175C141.489 42.5916 140.608 42.9286 139.495 42.9286H127.948V39.4421H138.139C138.811 39.4421 139.147 39.0934 139.147 38.3961V33.4103H138.556C138.301 33.8055 137.953 34.2122 137.513 34.6306C137.072 35.0258 136.492 35.3628 135.774 35.6417C135.055 35.9206 134.15 36.0601 133.061 36.0601C131.623 36.0601 130.301 35.7231 129.096 35.049C127.89 34.3517 126.928 33.3638 126.209 32.0854C125.49 30.7838 125.131 29.2265 125.131 27.4135ZM134.174 32.5387C135.611 32.5387 136.805 32.0854 137.756 31.1789C138.707 30.2492 139.182 28.9592 139.182 27.3089V26.9602C139.182 25.2867 138.707 23.9966 137.756 23.0901C136.829 22.1836 135.634 21.7304 134.174 21.7304C132.736 21.7304 131.53 22.1836 130.556 23.0901C129.606 23.9966 129.131 25.2867 129.131 26.9602V27.3089C129.131 28.9592 129.606 30.2492 130.556 31.1789C131.53 32.0854 132.736 32.5387 134.174 32.5387Z" fill="#0A0F0D"/>
<path fill-rule="evenodd" clip-rule="evenodd" d="M44.6266 26.6218C46.6749 22.5383 45.963 17.6074 42.8439 14.2736L37.5458 8.6109L32.0404 3.15054C28.7993 -0.0640984 23.9012 -0.909132 19.7745 1.03438L12.7649 4.33563L5.88327 7.89707C1.83188 9.99377 -0.483422 14.4024 0.0852271 18.9374L1.05113 26.6404L2.30342 34.3018C3.04067 38.8123 6.50783 42.382 10.986 43.2413L18.5925 44.7007L26.2481 45.8743C30.7552 46.5653 35.2133 44.3628 37.4123 40.3589L41.1475 33.5579L44.6266 26.6218ZM21.1616 37.7179C19.1001 37.7179 17.2453 37.303 15.6022 36.4733C13.9846 35.6177 12.6885 34.3862 11.7139 32.7787C10.7674 31.1452 10.2928 29.1488 10.2928 26.7894V20.3334C10.2928 16.8073 11.3516 14.1108 13.4692 12.244C15.5869 10.3513 18.4291 9.40498 21.9959 9.40498C25.5653 9.40498 28.308 10.2995 30.2317 12.0885C32.1926 13.8856 32.9948 16.3011 33.1041 18.7925C33.1188 19.1278 32.8249 19.4 32.4641 19.4H28.8361C28.4754 19.4 28.1857 19.1278 28.1662 18.7926C28.1156 17.9261 27.9414 17.0821 27.5145 16.2887C27.068 15.4591 26.3868 14.8109 25.4658 14.3442C24.5473 13.8516 23.3915 13.6052 21.9959 13.6052C19.9344 13.6052 18.3041 14.2016 17.1075 15.3942C15.9364 16.561 15.3496 18.1814 15.3496 20.2557V26.8672C15.3496 28.9155 15.9364 30.5489 17.1075 31.7675C17.9775 32.6531 19.0899 33.2169 20.4472 33.4589V24.0913C20.4472 23.7557 20.7396 23.4836 21.1004 23.4836H32.4641C32.8249 23.4836 33.1173 23.7557 33.1173 24.0913V37.1734L33.1045 37.4901C33.1045 37.6244 32.9897 37.7332 32.8443 37.7332C30.8975 37.7332 28.9492 37.7294 27.0012 37.7255C25.0538 37.7217 23.1067 37.7179 21.1616 37.7179Z" fill="#0A0F0D"/>
</svg>
