<svg width="97" height="35" viewBox="0 0 97 35" fill="none" xmlns="http://www.w3.org/2000/svg">
<g clip-path="url(#clip0_58_137)">
<path d="M96.303 16.2423C96.0873 8.26489 79.5576 1.86858 56.8471 0C65.4713 1.00616 72.7301 2.73101 76.8266 4.67146C86.96 7.76181 93.3563 12.0021 93.2845 16.6016C93.2126 20.2669 88.9724 23.6448 82.0011 26.1602C72.4426 29.8973 57.5658 32.7002 40.6767 33.4908C27.9559 34.0657 16.1695 33.4189 6.89844 31.8378C16.3851 33.9938 28.2434 35.2156 41.1079 35C71.8676 34.425 96.5186 26.0883 96.303 16.2423Z" fill="#0A0F0D"/>
<path d="M30.9035 21.5605V10.4927H32.7721V15.0204H34.8563V10.4927H36.7248V21.5605H34.8563V16.6734H32.7721V21.5605H30.9035ZM38.5934 13.1519C38.5934 11.5707 39.5277 10.2771 41.54 10.2771C43.5524 10.2771 44.4867 11.5707 44.4867 13.1519V18.9013C44.4867 20.4824 43.5524 21.7761 41.54 21.7761C39.5277 21.7761 38.5934 20.4824 38.5934 18.9013V13.1519ZM40.462 18.8295C40.462 19.6919 40.6776 20.0512 41.4682 20.0512C42.2587 20.0512 42.4743 19.62 42.4743 18.8295V13.2237C42.4743 12.3613 42.2587 12.002 41.4682 12.002C40.6776 12.002 40.462 12.4332 40.462 13.2237V18.8295ZM48.152 21.5605H46.2115V10.4927H48.8706C51.0267 10.4927 52.1047 11.427 52.1047 13.7987C52.1047 15.5954 51.386 16.3141 50.7392 16.6015L52.3203 21.6323H50.3799L49.0144 17.0328C48.7988 17.0328 48.3676 17.1046 48.0082 17.1046V21.5605H48.152ZM48.152 15.4516H48.8706C49.8768 15.4516 50.308 15.0923 50.308 13.7268C50.308 12.4332 49.9487 12.002 48.8706 12.002H48.152V15.4516ZM53.9733 21.5605V10.4927H59.076V12.1457H55.8419V15.0204H58.2854V16.6734H55.8419V19.9075H59.2916V21.5605H53.9733ZM64.6099 14.2299V13.3675C64.6099 12.4332 64.1786 12.002 63.6756 12.002C62.885 12.002 62.6694 12.4332 62.6694 13.2237V18.8295C62.6694 19.6919 62.885 20.0512 63.6756 20.0512C64.3942 20.0512 64.6099 19.62 64.6099 18.9013V17.5358H66.5503V18.8295C66.5503 20.4106 65.616 21.7042 63.7474 21.7042C61.7351 21.7042 60.8008 20.4106 60.8008 18.8295V13.08C60.8008 11.4989 61.7351 10.2052 63.7474 10.2052C65.6879 10.2052 66.5503 11.5707 66.5503 13.2237V14.0143H64.6099V14.2299ZM69.5688 21.5605H67.7002L69.7125 10.4927H72.0842L74.0965 21.5605H72.2279L71.8686 19.1169H69.7844L69.5688 21.5605ZM70.1437 17.464H71.653L70.9343 12.7206L70.1437 17.464ZM4.52772 5.46191L0 24.4352L6.46817 26.1601L11.2115 7.04302L4.52772 5.46191ZM6.89938 13.0081C6.32444 13.1519 6.1807 13.9424 6.32444 14.3736C6.46817 14.9486 7.40246 14.5892 7.97741 14.8048C8.12115 14.8767 8.12115 15.0204 8.12115 15.0923C8.12115 15.6673 7.97741 16.3141 7.68994 16.8172C7.40246 17.464 6.46817 17.0328 5.89322 17.2484C5.74949 17.2484 5.60575 17.3921 5.53388 17.5358C5.17454 18.6139 4.95893 19.6919 4.67146 20.8418C4.67146 20.9137 4.52772 21.0574 4.38398 21.1293C3.73717 21.3449 3.01848 21.1293 2.37166 21.1293C2.29979 21.1293 2.08419 21.0574 2.08419 20.9137C2.65914 17.3921 3.59343 14.3018 4.45585 10.8521C4.52772 10.5646 4.74333 10.4208 4.95893 10.4927C5.96509 10.2771 6.97125 10.4927 7.97741 10.4927C8.40862 10.4927 8.83984 10.4208 9.27105 10.5646C9.34292 10.6365 9.48665 10.7083 9.48665 10.7802C9.41478 11.427 9.34292 12.0738 8.98357 12.6488C8.55236 13.3675 7.61807 12.8644 6.89938 13.0081ZM12.4333 5.46191L8.26489 22.7822L25.154 26.8069L29.3943 9.48655L12.4333 5.46191ZM18.614 13.9424C18.3984 15.0204 18.1828 15.9547 17.9671 16.9609C17.9671 17.1046 17.8953 17.3202 17.8953 17.464C17.6078 18.6139 17.3922 19.6919 17.1047 20.8418C17.0329 20.9855 17.0329 21.0574 16.8891 21.1293C16.3142 21.273 15.8111 21.1293 15.2361 21.2011C14.9487 21.273 14.5175 21.2011 14.4456 20.9855C13.9425 19.5482 13.7988 18.1827 13.5113 16.6734C13.5113 16.6734 13.3676 16.6734 13.3676 16.7453C13.3676 17.1046 13.2957 17.3921 13.2238 17.7514C13.152 18.1827 13.0082 18.542 12.9363 18.9732C12.7926 19.5482 12.6489 20.0512 12.577 20.6262C12.577 20.8418 12.4333 21.0574 12.2895 21.0574C11.4271 21.2011 10.7084 21.273 9.91786 21.0574C9.63039 20.9855 9.77413 20.5543 9.846 20.3387C9.98973 19.9794 10.1335 19.5482 10.2053 19.1169C10.924 16.2422 11.499 13.5831 12.1458 10.6365C12.2177 10.4927 12.3614 10.4208 12.5051 10.2771C13.2238 10.1334 13.9425 10.2052 14.6612 10.349C14.7331 10.349 14.8768 10.4927 14.8768 10.5646C15.2361 12.002 15.5236 13.3675 15.6674 14.8048C15.7392 14.8048 15.883 14.8048 15.883 14.733C16.2423 13.3675 16.3142 12.002 16.8172 10.7083C16.8891 10.5646 16.961 10.4208 17.1047 10.4208C17.8234 10.2771 18.5421 10.2771 19.2608 10.4208C19.2608 10.4208 19.3326 10.4208 19.3326 10.4927C19.3326 11.7145 18.9014 12.7925 18.614 13.9424ZM26.7351 14.4455C26.6632 14.6611 26.5195 14.8767 26.4476 15.0923C25.5852 17.1046 24.8665 19.1169 23.7885 21.0574C23.7166 21.2011 23.5729 21.4167 23.4292 21.4167C22.423 21.5605 21.4168 21.4886 20.4107 21.3449C20.3388 21.3449 20.2669 21.2011 20.2669 21.1293C20.1951 20.5543 20.2669 20.0512 20.2669 19.4763C20.3388 16.889 20.6263 14.3736 20.8419 11.7863C20.9138 11.427 20.8419 10.9239 21.2012 10.6365C21.345 10.4927 21.4887 10.4927 21.4168 10.4927C22.1355 10.4927 22.7823 10.349 23.4292 10.5646C23.501 10.5646 23.5729 10.7083 23.5729 10.7802C23.501 11.7145 23.4292 12.5769 23.2136 13.5112C23.1417 13.8705 23.1417 14.2299 23.0698 14.5892C22.9261 15.236 22.8542 15.8829 22.7823 16.6015C22.7823 16.889 22.6386 17.1046 22.8542 17.3202C22.9261 17.3202 22.9979 17.1765 22.9979 17.1765C23.9322 15.0204 24.4353 12.7925 25.4415 10.7083C25.5133 10.5646 25.5852 10.4927 25.729 10.4927C26.5195 10.4208 27.2382 10.4208 28.0287 10.5646C28.1725 10.6365 28.1725 10.7802 28.1725 10.8521C28.1725 11.427 27.6694 11.8582 27.5257 12.3613C27.3101 13.08 26.9507 13.7268 26.7351 14.4455Z" fill="#0A0F0D"/>
</g>
<defs>
<clipPath id="clip0_58_137">
<rect width="96.3039" height="35" fill="white"/>
</clipPath>
</defs>
</svg>
