<svg width="112" height="36" viewBox="0 0 112 36" fill="none" xmlns="http://www.w3.org/2000/svg">
<path d="M51.9774 28.5208C50.6346 28.5208 49.4279 28.2297 48.3572 27.6476C47.3048 27.0473 46.461 26.1833 45.8258 25.0554C45.2089 23.9094 44.9004 22.5087 44.9004 20.8534V16.3239C44.9004 13.85 45.5899 11.9581 46.9691 10.6484C48.3482 9.32047 50.1991 8.65651 52.5218 8.65651C54.8445 8.65651 56.6319 9.28409 57.884 10.5392C59.1361 11.7762 59.7621 13.4498 59.7621 15.5599V15.669H56.5502V15.4507C56.5502 14.7231 56.4051 14.0682 56.1147 13.4861C55.8244 12.904 55.3798 12.4493 54.781 12.1218C54.1822 11.7762 53.4291 11.6034 52.5218 11.6034C51.179 11.6034 50.1174 12.0218 49.3371 12.8586C48.575 13.6771 48.1939 14.8141 48.1939 16.2693V20.9079C48.1939 22.345 48.575 23.491 49.3371 24.346C50.1174 25.201 51.1971 25.6284 52.5762 25.6284C53.9553 25.6284 54.9624 25.2555 55.5976 24.5097C56.2327 23.7639 56.5502 22.8089 56.5502 21.6447V21.3172H51.7324V18.5341H59.7621V28.1388H56.768V26.256H56.3053C56.1601 26.5834 55.9333 26.9291 55.6248 27.2929C55.3163 27.6385 54.8717 27.9296 54.291 28.166C53.7285 28.4025 52.9573 28.5208 51.9774 28.5208Z" fill="#0A0F0D"/>
<path d="M63.4675 33.596V14.6594H66.5433V16.433H67.006C67.3145 15.8691 67.8045 15.3689 68.4759 14.9323C69.1654 14.4957 70.1453 14.2774 71.4156 14.2774C72.5043 14.2774 73.5114 14.5503 74.4369 15.096C75.3805 15.6235 76.1336 16.4057 76.6961 17.4426C77.2586 18.4795 77.5399 19.7256 77.5399 21.1808V21.6174C77.5399 23.0726 77.2586 24.3187 76.6961 25.3556C76.1336 26.3924 75.3896 27.1837 74.4641 27.7295C73.5387 28.257 72.5225 28.5208 71.4156 28.5208C70.5627 28.5208 69.8459 28.4207 69.2652 28.2206C68.7027 28.0205 68.24 27.7567 67.8771 27.4293C67.5323 27.1019 67.2601 26.7745 67.0605 26.447H66.5978V33.596H63.4675ZM70.4901 25.7922C71.6333 25.7922 72.5678 25.4283 73.2937 24.7007C74.0377 23.9549 74.4097 22.8998 74.4097 21.5355V21.2627C74.4097 19.8802 74.0377 18.8251 73.2937 18.0975C72.5497 17.3699 71.6152 17.006 70.4901 17.006C69.365 17.006 68.4214 17.3699 67.6593 18.0975C66.9153 18.8251 66.5433 19.8802 66.5433 21.2627V21.5355C66.5433 22.8998 66.9153 23.9549 67.6593 24.7007C68.4214 25.4283 69.365 25.7922 70.4901 25.7922Z" fill="#0A0F0D"/>
<path d="M80.8517 28.1388V14.6594H83.9275V16.2147H84.3902C84.5898 15.6508 84.9255 15.2415 85.3973 14.9869C85.8691 14.7322 86.4317 14.6049 87.0849 14.6049H88.7181V17.388H87.0305C86.1232 17.388 85.3883 17.6336 84.8257 18.1248C84.2632 18.5977 83.9819 19.3345 83.9819 20.3349V28.1388H80.8517Z" fill="#0A0F0D"/>
<path d="M91.4842 28.1388V14.6594H94.6144V28.1388H91.4842ZM93.0357 12.9404C92.4732 12.9404 91.9832 12.7585 91.5659 12.3947C91.1667 12.0127 90.9671 11.5124 90.9671 10.894C90.9671 10.2755 91.1667 9.78433 91.5659 9.42052C91.9832 9.03851 92.4732 8.84751 93.0357 8.84751C93.6346 8.84751 94.1245 9.03851 94.5056 9.42052C94.9048 9.78433 95.1044 10.2755 95.1044 10.894C95.1044 11.5124 94.9048 12.0127 94.5056 12.3947C94.1245 12.7585 93.6346 12.9404 93.0357 12.9404Z" fill="#0A0F0D"/>
<path d="M97.9282 21.4537V21.0444C97.9282 19.6255 98.2094 18.4158 98.772 17.4153C99.3345 16.3967 100.088 15.6235 101.031 15.096C101.975 14.5503 103.009 14.2774 104.134 14.2774C105.404 14.2774 106.366 14.5048 107.019 14.9596C107.691 15.4144 108.181 15.9055 108.489 16.433H108.952V14.6594H112.001V30.7036C112.001 31.595 111.746 32.2953 111.238 32.8047C110.73 33.3322 110.041 33.596 109.17 33.596H100.133V30.8674H108.108C108.634 30.8674 108.898 30.5945 108.898 30.0488V26.1469H108.435C108.235 26.4561 107.963 26.7745 107.618 27.1019C107.273 27.4111 106.82 27.6749 106.257 27.8932C105.695 28.1115 104.987 28.2206 104.134 28.2206C103.009 28.2206 101.975 27.9568 101.031 27.4293C100.088 26.8836 99.3345 26.1105 98.772 25.11C98.2094 24.0913 97.9282 22.8725 97.9282 21.4537ZM105.005 25.4647C106.13 25.4647 107.065 25.11 107.809 24.4006C108.553 23.6729 108.925 22.6634 108.925 21.3718V21.099C108.925 19.7892 108.553 18.7796 107.809 18.0702C107.083 17.3608 106.148 17.006 105.005 17.006C103.88 17.006 102.937 17.3608 102.174 18.0702C101.43 18.7796 101.058 19.7892 101.058 21.099V21.3718C101.058 22.6634 101.43 23.6729 102.174 24.4006C102.937 25.11 103.88 25.4647 105.005 25.4647Z" fill="#0A0F0D"/>
<path fill-rule="evenodd" clip-rule="evenodd" d="M34.9252 20.8344C36.5282 17.6387 35.971 13.7797 33.53 11.1707L29.3837 6.73897L25.0751 2.46564C22.5386 -0.0501639 18.7053 -0.711495 15.4757 0.809517L9.98994 3.3931L4.6043 6.18031C1.43365 7.82121 -0.37833 11.2715 0.0666995 14.8205L0.822624 20.849L1.80268 26.8449C2.37966 30.3748 5.09309 33.1686 8.59772 33.841L14.5507 34.9832L20.542 35.9017C24.0693 36.4424 27.5582 34.7187 29.2792 31.5852L32.2024 26.2627L34.9252 20.8344ZM16.5613 29.5183C14.9479 29.5183 13.4963 29.1937 12.2104 28.5443C10.9445 27.8747 9.93016 26.9109 9.16741 25.6529C8.42663 24.3745 8.05524 22.8121 8.05524 20.9656V15.9131C8.05524 13.1535 8.88388 11.0433 10.5412 9.58229C12.1984 8.10104 14.4228 7.36042 17.2142 7.36042C20.0076 7.36042 22.1541 8.06046 23.6596 9.46055C25.1942 10.867 25.822 12.7574 25.9076 14.7072C25.9191 14.9696 25.689 15.1826 25.4067 15.1826H22.5674C22.2851 15.1826 22.0584 14.9695 22.0431 14.7073C22.0035 14.0291 21.8672 13.3686 21.5331 12.7477C21.1837 12.0984 20.6505 11.5911 19.9297 11.2259C19.2109 10.8403 18.3064 10.6476 17.2142 10.6476C15.6008 10.6476 14.3249 11.1143 13.3885 12.0477C12.472 12.9608 12.0127 14.229 12.0127 15.8522V21.0265C12.0127 22.6295 12.472 23.9078 13.3885 24.8615C14.0694 25.5546 14.9399 25.9959 16.0022 26.1852V18.8541C16.0022 18.5914 16.231 18.3785 16.5133 18.3785H25.4067C25.689 18.3785 25.9179 18.5914 25.9179 18.8541V29.0922L25.9079 29.3401C25.9079 29.4452 25.818 29.5303 25.7042 29.5303C24.1806 29.5303 22.6559 29.5273 21.1314 29.5243C19.6073 29.5213 18.0835 29.5183 16.5613 29.5183Z" fill="#0A0F0D"/>
</svg>
