<svg width="168" height="35" viewBox="0 0 168 35" fill="none" xmlns="http://www.w3.org/2000/svg">
<g clip-path="url(#clip0_58_153)">
<path d="M116.652 1.43311H117.306V16.9629H116.652V1.43311Z" fill="black"/>
<path fill-rule="evenodd" clip-rule="evenodd" d="M141.327 6.40587C140.98 6.39803 140.637 6.47677 140.328 6.63496C140.019 6.79315 139.754 7.02581 139.557 7.31195H139.536V4.63585C139.544 4.58327 139.54 4.52958 139.524 4.47886C139.508 4.42813 139.481 4.38171 139.444 4.34311C139.408 4.30451 139.363 4.27476 139.313 4.25611C139.263 4.23746 139.21 4.23041 139.157 4.23549H137.703V11.8423H139.536V9.58768C139.536 8.44981 139.916 7.92302 140.674 7.92302C141.18 7.92302 141.517 8.26017 141.517 9.25054V11.8213H143.35V8.5341C143.371 7.4173 142.781 6.40587 141.327 6.40587ZM133.636 9.22947C133.636 8.30231 134.268 7.77552 135.048 7.77552C135.322 7.76546 135.596 7.81581 135.849 7.92302C135.895 7.9467 135.945 7.96103 135.996 7.96517H136.017C136.068 7.96517 136.116 7.94519 136.151 7.90962C136.187 7.87406 136.207 7.82582 136.207 7.77552V6.6798C135.772 6.50532 135.306 6.41935 134.837 6.42694C133.067 6.42694 131.719 7.43838 131.719 9.20839C131.719 10.9784 133.067 11.9688 134.816 11.9688C135.317 11.9656 135.814 11.8874 136.291 11.737V10.3463C135.93 10.5213 135.533 10.6079 135.132 10.5991C134.353 10.6202 133.636 10.0934 133.636 9.22947ZM152.095 6.40587C151.721 6.39259 151.35 6.4793 151.02 6.65708C150.69 6.83485 150.414 7.09727 150.22 7.4173C149.925 6.72194 149.313 6.40587 148.555 6.40587C147.796 6.40587 147.185 6.6798 146.574 7.29087C146.516 7.36083 146.433 7.40601 146.342 7.4173C146.274 7.41895 146.207 7.39659 146.153 7.35409L145.415 6.61658C145.358 6.56388 145.283 6.53392 145.205 6.5323C145.166 6.53143 145.127 6.53847 145.091 6.55299C145.054 6.56751 145.022 6.58921 144.994 6.61678C144.966 6.64435 144.945 6.67721 144.93 6.71339C144.916 6.74957 144.909 6.78832 144.91 6.8273V11.8423H146.743V9.60875C146.743 8.47089 147.143 7.9441 147.775 7.9441C148.302 7.9441 148.513 8.3866 148.513 8.99768V11.8423H150.346V9.60875C150.346 8.47089 150.725 7.9441 151.379 7.9441C151.884 7.9441 152.116 8.3866 152.116 8.99768V11.8423H153.949V8.72375C153.97 7.2698 153.633 6.40587 152.095 6.40587ZM130.202 6.6798C130.124 6.68546 130.051 6.7149 129.991 6.76408L129.717 7.03802C129.665 7.08679 129.598 7.11651 129.527 7.1223C129.491 7.12581 129.455 7.11989 129.421 7.10512C129.388 7.09035 129.359 7.06723 129.338 7.03802C129.123 6.82976 128.869 6.66655 128.59 6.55799C128.312 6.44942 128.014 6.3977 127.715 6.40587C126.977 6.40587 126.27 6.69891 125.748 7.22054C125.227 7.74216 124.934 8.44963 124.934 9.18732C124.934 9.92501 125.227 10.6325 125.748 11.1541C126.27 11.6757 126.977 11.9688 127.715 11.9688C128.014 11.9769 128.312 11.9252 128.59 11.8167C128.869 11.7081 129.123 11.5449 129.338 11.3366C129.392 11.2914 129.457 11.2623 129.527 11.2523C129.563 11.2488 129.6 11.2548 129.633 11.2695C129.666 11.2843 129.695 11.3074 129.717 11.3366L129.991 11.6106C130.048 11.6633 130.123 11.6932 130.202 11.6948C130.24 11.6957 130.279 11.6887 130.315 11.6742C130.352 11.6596 130.384 11.6379 130.412 11.6104C130.44 11.5828 130.461 11.5499 130.476 11.5138C130.49 11.4776 130.497 11.4388 130.496 11.3998V6.9748C130.495 6.89707 130.463 6.82297 130.408 6.76799C130.353 6.71301 130.279 6.68141 130.202 6.6798ZM127.799 10.4516C127.479 10.4412 127.175 10.3048 126.954 10.0721C126.733 9.83945 126.613 9.52914 126.619 9.20839C126.615 9.04913 126.641 8.89049 126.698 8.74163C126.755 8.59277 126.841 8.45663 126.95 8.34106C127.06 8.22549 127.192 8.13278 127.337 8.06826C127.483 8.00375 127.64 7.96871 127.799 7.96517C128.117 7.98364 128.415 8.12267 128.633 8.3538C128.851 8.58492 128.972 8.89065 128.972 9.20839C128.972 9.52614 128.851 9.83187 128.633 10.063C128.415 10.2941 128.117 10.4331 127.799 10.4516ZM167.182 6.6798C167.104 6.68142 167.029 6.71138 166.972 6.76408L166.698 7.03802C166.646 7.08679 166.579 7.11651 166.508 7.1223C166.472 7.12412 166.436 7.11744 166.403 7.1028C166.37 7.08816 166.341 7.06596 166.318 7.03802C166.104 6.82976 165.85 6.66655 165.571 6.55799C165.292 6.44942 164.995 6.3977 164.696 6.40587C163.958 6.40587 163.251 6.69891 162.729 7.22054C162.207 7.74216 161.914 8.44963 161.914 9.18732C161.914 9.92501 162.207 10.6325 162.729 11.1541C163.251 11.6757 163.958 11.9688 164.696 11.9688C164.995 11.9769 165.292 11.9252 165.571 11.8167C165.85 11.7081 166.104 11.5449 166.318 11.3366C166.37 11.2878 166.437 11.2581 166.508 11.2523C166.544 11.2505 166.58 11.2572 166.613 11.2718C166.646 11.2865 166.675 11.3087 166.698 11.3366L166.972 11.6106C167.029 11.6633 167.104 11.6932 167.182 11.6948C167.221 11.6957 167.26 11.6887 167.296 11.6742C167.332 11.6596 167.365 11.6379 167.393 11.6104C167.42 11.5828 167.442 11.5499 167.457 11.5138C167.471 11.4776 167.478 11.4388 167.477 11.3998V6.9748C167.476 6.89707 167.444 6.82297 167.389 6.76799C167.334 6.71301 167.26 6.68141 167.182 6.6798ZM164.78 10.4516C164.459 10.4412 164.156 10.3048 163.935 10.0721C163.714 9.83945 163.594 9.52914 163.6 9.20839C163.595 9.04913 163.622 8.89049 163.679 8.74163C163.736 8.59277 163.821 8.45663 163.931 8.34106C164.041 8.22549 164.172 8.13278 164.318 8.06826C164.464 8.00375 164.621 7.96871 164.78 7.96517C165.097 7.98364 165.395 8.12267 165.613 8.3538C165.832 8.58492 165.953 8.89065 165.953 9.20839C165.953 9.52614 165.832 9.83187 165.613 10.063C165.395 10.2941 165.097 10.4331 164.78 10.4516ZM158.121 6.42694C156.478 6.42694 155.298 7.43838 155.298 9.20839C155.298 10.9784 156.625 11.9899 158.374 11.9899C159.036 11.9981 159.693 11.8838 160.313 11.6527V10.3463C159.814 10.6121 159.256 10.7497 158.69 10.7466C157.805 10.7466 157.236 10.4727 157.131 9.73519H160.776V9.39804C160.798 7.81767 160.081 6.42694 158.121 6.42694ZM158.922 8.70267H157.3C157.272 8.70431 157.245 8.6998 157.22 8.68947C157.195 8.67914 157.172 8.66326 157.154 8.64301C157.136 8.62277 157.122 8.59867 157.115 8.57252C157.107 8.54636 157.105 8.51883 157.11 8.49196C157.215 7.98624 157.51 7.58588 158.1 7.58588C158.733 7.58588 159.028 7.96517 159.112 8.47089C159.112 8.63946 159.028 8.70267 158.922 8.70267Z" fill="black"/>
<path d="M0 5.77363C0 7.71222 1.05358 9.01866 2.99217 9.86153L6.51114 11.2523C7.01686 11.463 7.69115 11.779 7.69115 12.6219C7.69115 13.1698 7.48043 14.2023 5.16255 14.2023C4.11985 14.1812 3.082 14.0541 2.06502 13.823C1.87547 13.7714 1.67758 13.7577 1.48272 13.7827C1.28786 13.8078 1.09986 13.871 0.929527 13.9689C0.759191 14.0668 0.609868 14.1974 0.49013 14.3532C0.370393 14.5089 0.282598 14.6868 0.231788 14.8766C0.0210716 15.6562 0.442504 16.4148 1.28537 16.7098C2.02288 16.9627 3.56111 17.1945 5.2047 17.1945C7.96508 17.1945 10.6623 15.8037 10.6623 12.643C10.6623 10.5147 9.27152 9.20831 7.67008 8.55509C7.08007 8.3233 4.59362 7.31186 4.19326 7.14329C3.43468 6.82721 2.9711 6.49007 2.9711 5.73149C2.9711 4.36183 4.76219 4.17218 5.4997 4.17218C6.38392 4.20326 7.26447 4.30188 8.13365 4.46719C8.52172 4.53426 8.92059 4.44585 9.24396 4.22107C9.56732 3.99629 9.78918 3.65322 9.86153 3.2661C9.94582 2.80253 9.8826 1.79109 8.53402 1.51716C7.52297 1.29856 6.49195 1.18557 5.45756 1.18001C2.69717 1.20108 0 2.65503 0 5.77363ZM36.3275 2.46538C36.2765 2.11174 36.0988 1.78864 35.8275 1.55611C35.5563 1.32357 35.2098 1.19742 34.8525 1.20108C34.4562 1.20275 34.0767 1.3609 33.7964 1.64112C33.5162 1.92133 33.3581 2.3009 33.3564 2.69717V15.7194C33.3564 15.9159 33.3951 16.1105 33.4703 16.292C33.5455 16.4735 33.6557 16.6384 33.7946 16.7773C33.9335 16.9163 34.0985 17.0265 34.28 17.1017C34.4615 17.1768 34.656 17.2155 34.8525 17.2155C35.049 17.2155 35.2435 17.1768 35.425 17.1017C35.6065 17.0265 35.7715 16.9163 35.9104 16.7773C36.0493 16.6384 36.1595 16.4735 36.2347 16.292C36.3099 16.1105 36.3486 15.9159 36.3486 15.7194V5.68934C38.7297 4.69898 39.6358 4.19326 41.3004 4.19326C42.8597 4.19326 43.4287 5.16255 43.4076 6.82721V15.7194C43.4076 15.9159 43.4463 16.1105 43.5215 16.292C43.5967 16.4735 43.7069 16.6384 43.8458 16.7773C43.9847 16.9163 44.1496 17.0265 44.3311 17.1017C44.5127 17.1768 44.7072 17.2155 44.9037 17.2155C45.1001 17.2155 45.2947 17.1768 45.4762 17.1017C45.6577 17.0265 45.8226 16.9163 45.9616 16.7773C46.1005 16.6384 46.2107 16.4735 46.2859 16.292C46.3611 16.1105 46.3998 15.9159 46.3998 15.7194V6.70078C46.3787 3.30825 44.419 1.20108 41.2161 1.20108C39.2565 1.20108 37.8447 1.81216 36.3275 2.46538ZM70.1896 2.21252C70.0753 1.87748 69.8457 1.59393 69.5418 1.41241C69.2378 1.2309 68.8793 1.1632 68.5301 1.2214C68.1809 1.2796 67.8637 1.45991 67.6351 1.73019C67.4065 2.00047 67.2812 2.34316 67.2818 2.69717V15.7194C67.2818 16.1162 67.4394 16.4968 67.7199 16.7773C68.0005 17.0579 68.3811 17.2155 68.7778 17.2155C69.1746 17.2155 69.5552 17.0579 69.8357 16.7773C70.1163 16.4968 70.2739 16.1162 70.2739 15.7194V5.68934C70.6321 5.41541 72.4654 4.19326 73.54 4.19326C74.0252 4.19511 74.5077 4.26606 74.9729 4.40397C75.1583 4.46485 75.3539 4.48862 75.5485 4.47391C75.743 4.4592 75.9328 4.40632 76.107 4.31826C76.2811 4.23021 76.4362 4.10873 76.5634 3.96073C76.6906 3.81274 76.7874 3.64115 76.8483 3.45575C76.9092 3.27035 76.9329 3.07477 76.9182 2.88019C76.9035 2.68561 76.8506 2.49582 76.7626 2.32168C76.6745 2.14753 76.553 1.99244 76.405 1.86524C76.2571 1.73805 76.0855 1.64125 75.9001 1.58037C75.1493 1.31548 74.3571 1.18702 73.5611 1.20108C72.5286 1.20108 71.4961 1.51716 70.1896 2.21252ZM98.6574 5.77363C98.6574 7.71222 99.711 9.01866 101.65 9.86153L105.169 11.2523C105.674 11.463 106.349 11.779 106.349 12.6219C106.349 13.1698 106.138 14.2023 103.82 14.2023C102.777 14.1812 101.739 14.0541 100.722 13.823C100.533 13.7714 100.335 13.7577 100.14 13.7827C99.9453 13.8078 99.7573 13.871 99.587 13.9689C99.4166 14.0668 99.2673 14.1974 99.1476 14.3532C99.0278 14.5089 98.94 14.6868 98.8892 14.8766C98.6785 15.6562 99.0999 16.4148 99.9428 16.7098C100.68 16.9627 102.219 17.1945 103.862 17.1945C106.623 17.1945 109.32 15.8037 109.32 12.643C109.32 10.5147 107.929 9.20831 106.328 8.55509C105.738 8.3233 103.251 7.31186 102.851 7.14329C102.092 6.82721 101.629 6.49007 101.629 5.73149C101.629 4.36183 103.42 4.17218 104.157 4.17218C105.041 4.20326 105.922 4.30188 106.791 4.46719C106.983 4.50182 107.181 4.49822 107.372 4.4566C107.563 4.41498 107.743 4.33615 107.904 4.22461C108.064 4.11307 108.201 3.97101 108.307 3.80655C108.412 3.64209 108.484 3.45844 108.519 3.2661C108.603 2.80253 108.54 1.79109 107.191 1.51716C106.18 1.29856 105.149 1.18557 104.115 1.18001C101.355 1.20108 98.6574 2.65503 98.6574 5.77363ZM25.3281 2.33895L23.3263 10.9151H22.1252C20.5027 10.9151 19.6598 10.3462 19.2806 9.06081L17.2998 2.27574C17.2482 2.08339 17.1586 1.90331 17.0363 1.7461C16.914 1.58889 16.7615 1.45771 16.5878 1.36027C16.4141 1.26284 16.2227 1.20113 16.0248 1.17876C15.8269 1.15639 15.6265 1.17381 15.4354 1.23001C15.2444 1.28621 15.0665 1.38004 14.9122 1.506C14.7579 1.63195 14.6304 1.78748 14.5371 1.96344C14.4438 2.13941 14.3866 2.33224 14.3689 2.53062C14.3512 2.729 14.3734 2.92891 14.4341 3.1186L16.4148 9.90367C17.068 12.2426 18.9645 13.9073 22.1252 13.9073H22.6099L22.2306 15.4877C22.0409 16.2252 20.9241 16.6255 19.7652 16.6255C18.9166 16.6155 18.0704 16.5309 17.2366 16.3727C16.8486 16.3007 16.4478 16.384 16.1206 16.6047C15.7935 16.8255 15.5662 17.1659 15.4877 17.5527C15.448 17.7452 15.4471 17.9437 15.4853 18.1365C15.5234 18.3293 15.5996 18.5126 15.7095 18.6755C15.8195 18.8385 15.9609 18.9778 16.1254 19.0853C16.2899 19.1928 16.4743 19.2664 16.6677 19.3016C17.6921 19.5231 18.7382 19.6291 19.7863 19.6177C22.2306 19.6177 24.6328 18.6063 25.2649 15.8669L28.2571 3.03432C28.3461 2.64874 28.2785 2.24359 28.0691 1.90779C27.8597 1.572 27.5257 1.33299 27.1403 1.24323C27.0292 1.22013 26.9165 1.20603 26.8031 1.20108C26.4639 1.19213 26.132 1.30042 25.8633 1.50769C25.5946 1.71497 25.4056 2.00856 25.3281 2.33895ZM90.2709 2.69717V12.7273C87.8898 13.7176 86.9837 14.2234 85.3191 14.2234C83.7598 14.2234 83.1908 13.2541 83.2119 11.5894V2.69717C83.2119 2.30038 83.0543 1.91985 82.7737 1.63928C82.4932 1.35871 82.1126 1.20108 81.7158 1.20108C81.319 1.20108 80.9385 1.35871 80.6579 1.63928C80.3774 1.91985 80.2197 2.30038 80.2197 2.69717V11.6948C80.2408 15.0873 82.2005 17.1945 85.4034 17.1945C87.363 17.1945 88.7748 16.5623 90.292 15.9302C90.343 16.2838 90.5207 16.6069 90.792 16.8394C91.0632 17.072 91.4097 17.1981 91.767 17.1945C92.1633 17.1928 92.5429 17.0346 92.8231 16.7544C93.1033 16.4742 93.2614 16.0946 93.2631 15.6984V2.69717C93.2631 2.30038 93.1055 1.91985 92.8249 1.63928C92.5443 1.35871 92.1638 1.20108 91.767 1.20108C91.3702 1.20108 90.9897 1.35871 90.7091 1.63928C90.4285 1.91985 90.2709 2.30038 90.2709 2.69717ZM53.522 0.37929L51.8573 1.79109C51.6208 1.98601 51.4509 2.24976 51.3712 2.54567C51.2915 2.84159 51.306 3.15498 51.4126 3.44231C51.5192 3.72963 51.7126 3.97663 51.966 4.14897C52.2194 4.32131 52.5202 4.41044 52.8266 4.40397H52.9952V11.6526C52.9952 15.2348 55.1445 17.1945 58.1788 17.1945C59.3856 17.1909 60.5803 16.9548 61.6978 16.4991C61.8772 16.4214 62.0394 16.3088 62.1749 16.1678C62.3104 16.0269 62.4166 15.8604 62.4872 15.678C62.5578 15.4957 62.5914 15.3011 62.5861 15.1056C62.5808 14.9102 62.5367 14.7177 62.4563 14.5394C62.1192 13.7809 61.3185 13.4859 60.5178 13.7809C59.7682 14.0578 58.9777 14.2073 58.1788 14.2234C56.6406 14.2234 55.9874 13.4437 55.9874 11.6315V4.42505H59.0849C59.4817 4.42505 59.8622 4.26742 60.1428 3.98685C60.4234 3.70628 60.581 3.32575 60.581 2.92896C60.581 2.53217 60.4234 2.15164 60.1428 1.87107C59.8622 1.59049 59.4817 1.43287 59.0849 1.43287H55.9663C55.951 1.16078 55.8627 0.897826 55.7107 0.671645C55.5587 0.445465 55.3485 0.264408 55.1023 0.147501C54.9036 0.0565284 54.6887 0.00637052 54.4702 0C54.1225 0.0253412 53.7912 0.157854 53.522 0.37929ZM2.99217 29.8585C2.84339 29.7774 2.67698 29.734 2.50753 29.7321C2.02673 29.7962 1.55807 29.9311 1.1168 30.1324V34.41C1.1157 34.5326 1.0665 34.6499 0.979803 34.7366C0.893103 34.8233 0.775828 34.8725 0.653221 34.8736C0.530613 34.8725 0.413339 34.8233 0.326639 34.7366C0.239938 34.6499 0.190744 34.5326 0.189645 34.41V29.3528C0.190744 29.2302 0.239938 29.1129 0.326639 29.0262C0.413339 28.9395 0.530613 28.8903 0.653221 28.8892C0.743022 28.8864 0.831526 28.9112 0.906855 28.9602C0.982185 29.0091 1.04074 29.08 1.07465 29.1632C1.52816 28.9588 2.01229 28.8306 2.50753 28.7839C2.84632 28.7885 3.17893 28.8753 3.47682 29.0367C3.5858 29.101 3.66478 29.2059 3.69639 29.3284C3.72801 29.4509 3.70966 29.581 3.64539 29.6899C3.58113 29.7989 3.4762 29.8779 3.3537 29.9095C3.23119 29.9411 3.10115 29.9228 2.99217 29.8585ZM9.31367 32.1553L5.33113 32.4082C5.47863 33.5039 6.21613 34.115 7.29079 34.115C7.68027 34.1206 8.067 34.0489 8.42866 33.9043C8.48098 33.8803 8.53767 33.8673 8.59522 33.866C8.65277 33.8648 8.70996 33.8754 8.76327 33.8971C8.81657 33.9188 8.86487 33.9512 8.90517 33.9923C8.94547 34.0334 8.97692 34.0823 8.99759 34.1361C9.02158 34.1884 9.03459 34.2451 9.03582 34.3026C9.03706 34.3602 9.02649 34.4174 9.00477 34.4707C8.98306 34.524 8.95065 34.5723 8.90955 34.6126C8.86845 34.6529 8.81953 34.6843 8.7658 34.705C8.29649 34.8909 7.79555 34.9839 7.29079 34.9789C5.58398 34.9789 4.44612 33.7778 4.44612 32.0921V31.6285C4.44612 30.2378 5.37327 28.826 7.14329 28.826C8.72366 28.826 9.71403 29.9428 9.71403 31.7339C9.71629 31.7881 9.70764 31.8422 9.68858 31.8929C9.66953 31.9437 9.64047 31.9901 9.60312 32.0294C9.56577 32.0687 9.5209 32.1001 9.47118 32.1218C9.42145 32.1434 9.36789 32.1548 9.31367 32.1553ZM8.82902 31.3335C8.72366 30.4907 8.3233 29.6899 7.14329 29.6899C5.92113 29.6899 5.3522 30.596 5.31005 31.5442L8.82902 31.3335ZM15.3191 34.4521C15.3205 34.5106 15.3101 34.5688 15.2883 34.6232C15.2666 34.6775 15.2341 34.7269 15.1927 34.7683C15.1513 34.8096 15.102 34.8422 15.0476 34.8639C14.9933 34.8856 14.9351 34.8961 14.8766 34.8946C14.7791 34.8924 14.685 34.8582 14.6089 34.7973C14.5327 34.7364 14.4787 34.6521 14.4551 34.5575C13.9494 34.7682 13.2962 35 12.7694 35C12.5237 35.0113 12.2783 34.972 12.0484 34.8844C11.8185 34.7969 11.6092 34.663 11.4333 34.491C11.2574 34.3191 11.1187 34.1128 11.026 33.885C10.9332 33.6571 10.8883 33.4127 10.894 33.1668C10.894 32.071 11.7158 31.7128 12.6219 31.5442L14.4341 31.2071V30.4907C14.4341 30.0271 13.8019 29.6899 13.2962 29.6899C12.7139 29.7351 12.1361 29.8267 11.5683 29.9639C11.4555 29.9847 11.3389 29.9608 11.2433 29.8974C11.1477 29.8339 11.0805 29.7357 11.0558 29.6236C11.0312 29.5115 11.0512 29.3942 11.1114 29.2965C11.1716 29.1988 11.2675 29.1283 11.3787 29.0999C12.0069 28.9401 12.649 28.8413 13.2962 28.8049C14.2655 28.8049 15.3191 29.4792 15.3191 30.4696V34.4521ZM14.4551 32.071L12.7905 32.3871C11.9476 32.5346 11.779 32.7453 11.779 33.1457C11.779 33.7146 12.1794 34.0939 12.7905 34.0939C13.2751 34.0939 14.0337 33.7778 14.4762 33.5882V32.071H14.4551ZM18.2691 34.4311C18.2691 34.554 18.2203 34.6719 18.1333 34.7589C18.0464 34.8458 17.9285 34.8946 17.8055 34.8946C17.6826 34.8946 17.5647 34.8458 17.4777 34.7589C17.3908 34.6719 17.342 34.554 17.342 34.4311V26.9928C17.342 26.8698 17.3908 26.7519 17.4777 26.665C17.5647 26.578 17.6826 26.5292 17.8055 26.5292C17.9285 26.5292 18.0464 26.578 18.1333 26.665C18.2203 26.7519 18.2691 26.8698 18.2691 26.9928V34.4311ZM27.7724 32.1553L23.7899 32.4082C23.9374 33.5039 24.6749 34.115 25.7495 34.115C26.139 34.1206 26.5258 34.0489 26.8874 33.9043C26.9397 33.8803 26.9964 33.8673 27.054 33.866C27.1115 33.8648 27.1687 33.8754 27.222 33.8971C27.2753 33.9188 27.3236 33.9512 27.3639 33.9923C27.4042 34.0334 27.4357 34.0823 27.4564 34.1361C27.4803 34.1884 27.4933 34.2451 27.4946 34.3026C27.4958 34.3602 27.4852 34.4174 27.4635 34.4707C27.4418 34.524 27.4094 34.5723 27.3683 34.6126C27.3272 34.6529 27.2783 34.6843 27.2246 34.705C26.7552 34.8909 26.2543 34.9839 25.7495 34.9789C24.0427 34.9789 22.9049 33.7778 22.9049 32.0921V31.6285C22.9049 30.2378 23.832 28.826 25.602 28.826C27.1824 28.826 28.1728 29.9428 28.1728 31.7339C28.175 31.7881 28.1664 31.8422 28.1473 31.8929C28.1283 31.9437 28.0992 31.9901 28.0619 32.0294C28.0245 32.0687 27.9797 32.1001 27.9299 32.1218C27.8802 32.1434 27.8266 32.1548 27.7724 32.1553ZM27.2878 31.3335C27.1824 30.4907 26.8031 29.6899 25.602 29.6899C24.401 29.6899 23.811 30.596 23.7688 31.5442L27.2878 31.3335ZM31.3757 34.9789C30.8368 34.9711 30.3001 34.9075 29.7742 34.7893C29.716 34.7757 29.661 34.7507 29.6125 34.7157C29.564 34.6807 29.5229 34.6365 29.4915 34.5856C29.4602 34.5346 29.4392 34.478 29.4299 34.4189C29.4206 34.3599 29.423 34.2995 29.4371 34.2414C29.4518 34.1816 29.4783 34.1254 29.515 34.076C29.5517 34.0266 29.5979 33.9849 29.6509 33.9535C29.7038 33.9222 29.7625 33.9016 29.8235 33.8932C29.8845 33.8847 29.9465 33.8885 30.006 33.9043C30.4571 33.995 30.9156 34.0444 31.3757 34.0518C31.5021 34.0518 32.5557 34.0307 32.5557 33.2721C32.5557 32.8296 32.4293 32.7243 32.0289 32.5768L30.4907 32.071C29.9428 31.8814 29.3317 31.5653 29.3317 30.5117C29.3317 29.3528 30.4275 28.826 31.4389 28.826C31.9635 28.8397 32.4856 28.9032 32.9982 29.0157C33.1163 29.0497 33.2169 29.1276 33.2796 29.2333C33.3422 29.339 33.3622 29.4647 33.3353 29.5846C33.3206 29.6444 33.2941 29.7006 33.2574 29.75C33.2207 29.7995 33.1745 29.8411 33.1216 29.8725C33.0686 29.9038 33.0099 29.9244 32.9489 29.9328C32.888 29.9413 32.8259 29.9375 32.7664 29.9217C32.3299 29.8255 31.8856 29.7691 31.4389 29.7532C31.3125 29.7532 30.2589 29.7742 30.2589 30.5328C30.2589 30.9753 30.3853 31.0807 30.7857 31.2282L32.3239 31.755C32.8507 31.9446 33.4618 32.2607 33.4618 33.3143C33.4828 34.4521 32.3871 34.9789 31.3757 34.9789ZM38.6032 34.7893C38.3146 34.9048 38.0079 34.969 37.6972 34.9789C36.3064 34.9789 35.6111 34.1993 35.6111 32.64V29.8164H34.8525C34.7295 29.8164 34.6116 29.7675 34.5247 29.6806C34.4378 29.5937 34.3889 29.4757 34.3889 29.3528C34.3889 29.2299 34.4378 29.1119 34.5247 29.025C34.6116 28.9381 34.7295 28.8892 34.8525 28.8892H35.6111V27.4142C35.6111 27.2913 35.6599 27.1733 35.7469 27.0864C35.8338 26.9995 35.9517 26.9506 36.0746 26.9506C36.1976 26.9506 36.3155 26.9995 36.4025 27.0864C36.4894 27.1733 36.5382 27.2913 36.5382 27.4142V28.9103H37.929C38.0519 28.9103 38.1698 28.9591 38.2568 29.0461C38.3437 29.133 38.3925 29.2509 38.3925 29.3739C38.3925 29.4968 38.3437 29.6147 38.2568 29.7017C38.1698 29.7886 38.0519 29.8374 37.929 29.8374H36.5382V32.661C36.5382 33.8411 36.9597 34.0728 37.7182 34.0728C37.9139 34.0653 38.1067 34.0224 38.2872 33.9464C38.3434 33.9213 38.4041 33.908 38.4656 33.9073C38.5272 33.9065 38.5882 33.9184 38.645 33.9421C38.7017 33.9659 38.7531 34.001 38.7958 34.0453C38.8385 34.0896 38.8716 34.1422 38.8932 34.1998C38.9148 34.2575 38.9244 34.3189 38.9214 34.3804C38.9184 34.4418 38.9028 34.502 38.8756 34.5572C38.8485 34.6124 38.8103 34.6615 38.7634 34.7014C38.7166 34.7413 38.6621 34.7712 38.6032 34.7893ZM44.1662 34.4521C44.1676 34.5106 44.1572 34.5688 44.1354 34.6232C44.1137 34.6775 44.0812 34.7269 44.0398 34.7683C43.9984 34.8096 43.949 34.8422 43.8947 34.8639C43.8404 34.8856 43.7822 34.8961 43.7237 34.8946C43.6262 34.8924 43.5321 34.8582 43.4559 34.7973C43.3798 34.7364 43.3258 34.6521 43.3022 34.5575C42.7965 34.7682 42.1433 35 41.6165 35C41.3708 35.0113 41.1254 34.972 40.8955 34.8844C40.6656 34.7969 40.4562 34.663 40.2803 34.491C40.1044 34.3191 39.9658 34.1128 39.873 33.885C39.7803 33.6571 39.7354 33.4127 39.7411 33.1668C39.7411 32.071 40.5629 31.7128 41.469 31.5442L43.3022 31.2071V30.4907C43.3022 30.0271 42.6701 29.6899 42.1644 29.6899C41.5818 29.7334 41.0039 29.8251 40.4365 29.9639C40.3236 29.9847 40.2071 29.9608 40.1114 29.8974C40.0158 29.8339 39.9486 29.7357 39.924 29.6236C39.8994 29.5115 39.9193 29.3942 39.9795 29.2965C40.0398 29.1988 40.1356 29.1283 40.2468 29.0999C40.875 28.9401 41.5172 28.8413 42.1644 28.8049C43.1337 28.8049 44.1872 29.4792 44.1872 30.4696V34.4521H44.1662ZM43.2812 32.071L41.6165 32.3871C40.7736 32.5346 40.6051 32.7453 40.6051 33.1457C40.6051 33.7146 41.0054 34.0939 41.6165 34.0939C42.1011 34.0939 42.8597 33.7778 43.3022 33.5882V32.071H43.2812ZM49.6026 34.7893C49.314 34.9048 49.0073 34.969 48.6966 34.9789C47.3058 34.9789 46.6105 34.1993 46.6105 32.64V29.8164H45.8519C45.7289 29.8164 45.611 29.7675 45.5241 29.6806C45.4372 29.5937 45.3883 29.4757 45.3883 29.3528C45.3883 29.2299 45.4372 29.1119 45.5241 29.025C45.611 28.9381 45.7289 28.8892 45.8519 28.8892H46.6105V27.4142C46.6105 27.2913 46.6593 27.1733 46.7463 27.0864C46.8332 26.9995 46.9511 26.9506 47.074 26.9506C47.197 26.9506 47.3149 26.9995 47.4018 27.0864C47.4888 27.1733 47.5376 27.2913 47.5376 27.4142V28.9103H48.9284C49.0513 28.9103 49.1692 28.9591 49.2561 29.0461C49.3431 29.133 49.3919 29.2509 49.3919 29.3739C49.3919 29.4968 49.3431 29.6147 49.2561 29.7017C49.1692 29.7886 49.0513 29.8374 48.9284 29.8374H47.5376V32.661C47.5376 33.8411 47.9591 34.0728 48.7176 34.0728C48.9133 34.0653 49.1061 34.0224 49.2866 33.9464C49.3428 33.9213 49.4035 33.908 49.465 33.9073C49.5266 33.9065 49.5876 33.9184 49.6444 33.9421C49.7011 33.9659 49.7525 34.001 49.7952 34.0453C49.8379 34.0896 49.871 34.1422 49.8926 34.1998C49.9142 34.2575 49.9238 34.3189 49.9208 34.3804C49.9178 34.4418 49.9022 34.502 49.875 34.5572C49.8479 34.6124 49.8097 34.6615 49.7628 34.7014C49.716 34.7413 49.6615 34.7712 49.6026 34.7893ZM55.6291 32.1553L51.6466 32.4082C51.7941 33.5039 52.5316 34.115 53.6063 34.115C53.9957 34.1206 54.3825 34.0489 54.7441 33.9043C54.7965 33.8803 54.8531 33.8673 54.9107 33.866C54.9682 33.8648 55.0254 33.8754 55.0787 33.8971C55.132 33.9188 55.1803 33.9512 55.2206 33.9923C55.2609 34.0334 55.2924 34.0823 55.3131 34.1361C55.337 34.1884 55.3501 34.2451 55.3513 34.3026C55.3525 34.3602 55.342 34.4174 55.3202 34.4707C55.2985 34.524 55.2661 34.5723 55.225 34.6126C55.1839 34.6529 55.135 34.6843 55.0813 34.705C54.612 34.8909 54.111 34.9839 53.6063 34.9789C51.8995 34.9789 50.7616 33.7778 50.7616 32.0921V31.6285C50.7616 30.2378 51.6887 28.826 53.4588 28.826C55.0391 28.826 56.0295 29.9428 56.0295 31.7339C56.0336 31.7885 56.0263 31.8434 56.0079 31.895C55.9895 31.9466 55.9606 31.9937 55.9228 32.0335C55.8851 32.0732 55.8395 32.1045 55.7889 32.1255C55.7383 32.1465 55.6839 32.1567 55.6291 32.1553ZM55.1656 31.3335C55.0602 30.4907 54.6598 29.6899 53.4798 29.6899C52.2577 29.6899 51.6887 30.596 51.6466 31.5442L55.1656 31.3335ZM67.3028 31.5232C67.3028 31.5232 66.4178 32.3871 65.6592 33.1036L66.6707 34.1571C66.7108 34.1973 66.7426 34.2449 66.7643 34.2973C66.7861 34.3497 66.7972 34.4059 66.7972 34.4627C66.7972 34.5194 66.7861 34.5756 66.7643 34.628C66.7426 34.6805 66.7108 34.7281 66.6707 34.7682C66.6306 34.8083 66.5829 34.8402 66.5305 34.8619C66.4781 34.8836 66.4219 34.8948 66.3651 34.8948C66.3084 34.8948 66.2522 34.8836 66.1998 34.8619C66.1474 34.8402 66.0997 34.8083 66.0596 34.7682L65.0271 33.7146C64.6689 34.0518 64.2685 34.3889 64.2685 34.3889C63.8181 34.7633 63.2527 34.9715 62.6671 34.9789C62.3497 34.9889 62.0336 34.9345 61.7379 34.8189C61.4421 34.7033 61.1729 34.529 60.9464 34.3064C60.7199 34.0839 60.5409 33.8178 60.4201 33.5241C60.2994 33.2304 60.2394 32.9153 60.2438 32.5978C60.2438 31.5653 60.9603 30.8489 61.8031 30.3642C61.171 29.6478 60.9603 29.1842 60.9603 28.5099C60.9603 27.3088 61.8242 26.466 63.0464 26.466C63.5918 26.4551 64.1254 26.6255 64.5635 26.9506C64.6065 26.9879 64.6418 27.0333 64.6672 27.0842C64.6926 27.1352 64.7077 27.1906 64.7116 27.2474C64.7155 27.3042 64.7082 27.3612 64.69 27.4151C64.6718 27.4691 64.6432 27.5189 64.6057 27.5617C64.5692 27.606 64.5241 27.6424 64.4732 27.6686C64.4222 27.6949 64.3664 27.7105 64.3092 27.7144C64.252 27.7184 64.1946 27.7106 64.1405 27.6916C64.0864 27.6726 64.0367 27.6427 63.9946 27.6039C63.7172 27.4109 63.3839 27.3146 63.0464 27.3299C62.3088 27.3299 61.8242 27.7724 61.8242 28.4889C61.8242 28.9524 61.9296 29.2474 62.941 30.2799L65.0692 32.4503C65.6382 31.9025 66.7339 30.87 66.7339 30.87C66.7747 30.8298 66.8232 30.7984 66.8765 30.7777C66.9298 30.7569 66.9868 30.7472 67.044 30.7492C67.1011 30.7512 67.1573 30.7648 67.2091 30.7892C67.2608 30.8135 67.3071 30.8482 67.345 30.891C67.4154 30.9838 67.4499 31.0988 67.4422 31.215C67.4344 31.3312 67.3849 31.4406 67.3028 31.5232ZM62.3931 31.0175C61.7821 31.3546 61.0867 31.7971 61.0867 32.5978C61.0805 32.8023 61.1169 33.0059 61.1937 33.1956C61.2704 33.3853 61.3858 33.5569 61.5324 33.6996C61.6791 33.8423 61.8538 33.9529 62.0455 34.0244C62.2372 34.0959 62.4417 34.1268 62.646 34.115C63.0475 34.0981 63.4324 33.9501 63.7417 33.6936C63.7417 33.6936 64.0789 33.4196 64.416 33.0825L62.3931 31.0175ZM76.3847 27.6671C75.584 27.4985 74.699 27.3931 74.2143 27.4564C73.6032 27.5196 72.9711 27.8567 72.9711 28.5521V29.711H76.2583C76.3809 29.7121 76.4982 29.7613 76.5849 29.848C76.6716 29.9347 76.7207 30.052 76.7219 30.1746V34.4311C76.7219 34.4919 76.7099 34.5522 76.6866 34.6085C76.6633 34.6647 76.6291 34.7158 76.5861 34.7589C76.543 34.8019 76.4919 34.8361 76.4357 34.8594C76.3794 34.8827 76.3192 34.8946 76.2583 34.8946C76.1974 34.8946 76.1371 34.8827 76.0809 34.8594C76.0246 34.8361 75.9735 34.8019 75.9305 34.7589C75.8874 34.7158 75.8533 34.6647 75.83 34.6085C75.8067 34.5522 75.7947 34.4919 75.7947 34.4311V30.6382H72.9711V34.4311C72.9711 34.554 72.9223 34.6719 72.8353 34.7589C72.7484 34.8458 72.6305 34.8946 72.5075 34.8946C72.3846 34.8946 72.2667 34.8458 72.1797 34.7589C72.0928 34.6719 72.0439 34.554 72.0439 34.4311V30.6382H71.3907C71.2678 30.6382 71.1499 30.5893 71.0629 30.5024C70.976 30.4155 70.9271 30.2975 70.9271 30.1746C70.9271 30.0516 70.976 29.9337 71.0629 29.8468C71.1499 29.7599 71.2678 29.711 71.3907 29.711H72.0439V28.5521C72.0439 27.4985 72.8447 26.6767 74.0879 26.5503C74.9308 26.466 75.5629 26.5503 76.5954 26.7821C76.6544 26.7943 76.7102 26.8185 76.7595 26.8531C76.8088 26.8878 76.8505 26.9321 76.882 26.9833C76.9136 27.0346 76.9344 27.0918 76.943 27.1514C76.9517 27.211 76.9482 27.2718 76.9326 27.3299C76.9195 27.3884 76.8948 27.4437 76.86 27.4926C76.8251 27.5414 76.7809 27.5827 76.7298 27.6141C76.6787 27.6456 76.6219 27.6664 76.5626 27.6755C76.5033 27.6846 76.4428 27.6817 76.3847 27.6671ZM83.7176 34.4311C83.7176 34.554 83.6688 34.6719 83.5819 34.7589C83.4949 34.8458 83.377 34.8946 83.2541 34.8946C83.1311 34.8946 83.0132 34.8458 82.9263 34.7589C82.8393 34.6719 82.7905 34.554 82.7905 34.4311V31.186C82.7905 30.1746 82.3901 29.7532 81.463 29.7532C80.7633 29.7831 80.1008 30.0767 79.6087 30.575V34.4521C79.6087 34.513 79.5967 34.5733 79.5734 34.6295C79.5501 34.6858 79.5159 34.7369 79.4729 34.7799C79.4298 34.823 79.3787 34.8571 79.3225 34.8804C79.2663 34.9037 79.206 34.9157 79.1451 34.9157C79.0842 34.9157 79.0239 34.9037 78.9677 34.8804C78.9114 34.8571 78.8603 34.823 78.8173 34.7799C78.7742 34.7369 78.7401 34.6858 78.7168 34.6295C78.6935 34.5733 78.6815 34.513 78.6815 34.4521V29.3949C78.6815 29.272 78.7304 29.1541 78.8173 29.0671C78.9042 28.9802 79.0221 28.9314 79.1451 28.9314C79.268 28.9314 79.3859 28.9802 79.4729 29.0671C79.5598 29.1541 79.6087 29.272 79.6087 29.3949V29.4582C80.1509 29.0718 80.7973 28.8588 81.463 28.8471C82.9169 28.8471 83.6966 29.6899 83.6966 31.2071V34.4311H83.7176ZM89.7231 34.4521C89.7245 34.5106 89.714 34.5688 89.6923 34.6232C89.6706 34.6775 89.638 34.7269 89.5967 34.7683C89.5553 34.8096 89.5059 34.8422 89.4516 34.8639C89.3972 34.8856 89.3391 34.8961 89.2806 34.8946C89.182 34.8966 89.0858 34.864 89.0088 34.8024C88.9318 34.7408 88.8788 34.6541 88.8591 34.5575C88.3534 34.7682 87.7002 35 87.1734 35C86.9277 35.0113 86.6822 34.972 86.4524 34.8844C86.2225 34.7969 86.0131 34.663 85.8372 34.491C85.6613 34.3191 85.5227 34.1128 85.4299 33.885C85.3372 33.6571 85.2923 33.4127 85.298 33.1668C85.298 32.071 86.1198 31.7128 87.0259 31.5442L88.838 31.2071V30.4907C88.838 30.0271 88.2059 29.6899 87.7002 29.6899C87.1178 29.7351 86.54 29.8267 85.9723 29.9639C85.9148 29.9785 85.8549 29.9815 85.7962 29.9725C85.7375 29.9636 85.6812 29.9429 85.6307 29.9118C85.5802 29.8806 85.5364 29.8396 85.5021 29.7912C85.4677 29.7428 85.4434 29.688 85.4307 29.63C85.418 29.572 85.4171 29.512 85.428 29.4537C85.4389 29.3953 85.4614 29.3398 85.4943 29.2903C85.5271 29.2409 85.5696 29.1985 85.6191 29.1658C85.6687 29.1331 85.7243 29.1107 85.7827 29.0999C86.4108 28.9401 87.053 28.8413 87.7002 28.8049C88.6695 28.8049 89.7231 29.4792 89.7231 30.4696V34.4521ZM88.838 32.071L87.1734 32.3871C86.3305 32.5346 86.1619 32.7453 86.1619 33.1457C86.1619 33.7146 86.5623 34.0939 87.1734 34.0939C87.658 34.0939 88.4166 33.7778 88.8591 33.5882V32.071H88.838ZM96.6767 34.4311C96.6767 34.4919 96.6647 34.5522 96.6414 34.6085C96.6181 34.6647 96.584 34.7158 96.5409 34.7589C96.4979 34.8019 96.4468 34.8361 96.3905 34.8594C96.3343 34.8827 96.274 34.8946 96.2131 34.8946C96.1522 34.8946 96.092 34.8827 96.0357 34.8594C95.9795 34.8361 95.9284 34.8019 95.8853 34.7589C95.8423 34.7158 95.8081 34.6647 95.7848 34.6085C95.7615 34.5522 95.7495 34.4919 95.7495 34.4311V31.186C95.7495 30.1746 95.3492 29.7532 94.422 29.7532C93.7223 29.7831 93.0599 30.0767 92.5677 30.575V34.4521C92.5677 34.5751 92.5189 34.693 92.4319 34.7799C92.345 34.8669 92.2271 34.9157 92.1041 34.9157C91.9812 34.9157 91.8633 34.8669 91.7764 34.7799C91.6894 34.693 91.6406 34.5751 91.6406 34.4521V29.3949C91.6406 29.272 91.6894 29.1541 91.7764 29.0671C91.8633 28.9802 91.9812 28.9314 92.1041 28.9314C92.2271 28.9314 92.345 28.9802 92.4319 29.0671C92.5189 29.1541 92.5677 29.272 92.5677 29.3949V29.4582C93.1099 29.0718 93.7564 28.8588 94.422 28.8471C95.876 28.8471 96.6556 29.6899 96.6556 31.2071V34.4311H96.6767ZM102.324 29.8796C101.989 29.7806 101.641 29.7309 101.291 29.7321C100.006 29.7321 99.2053 30.6382 99.2053 31.9025C99.2053 33.1668 100.006 34.0728 101.291 34.0728C101.635 34.0841 101.977 34.0342 102.303 33.9253C102.357 33.8988 102.415 33.8832 102.475 33.8794C102.535 33.8757 102.595 33.8838 102.652 33.9034C102.709 33.923 102.761 33.9536 102.806 33.9936C102.851 34.0335 102.888 34.0819 102.914 34.1361C102.964 34.2479 102.967 34.3749 102.924 34.4894C102.881 34.6039 102.794 34.6965 102.682 34.7471C102.24 34.9208 101.766 34.9998 101.291 34.9789C99.5003 34.9789 98.2992 33.6725 98.2992 31.9025C98.2992 30.1324 99.5003 28.826 101.291 28.826C101.749 28.8289 102.203 28.9 102.64 29.0367C102.753 29.0807 102.844 29.1667 102.896 29.2767C102.947 29.3866 102.953 29.512 102.914 29.6267C102.894 29.6836 102.862 29.7357 102.821 29.7798C102.78 29.8238 102.73 29.8588 102.674 29.8826C102.619 29.9064 102.559 29.9184 102.499 29.9178C102.438 29.9173 102.379 29.9043 102.324 29.8796ZM108.919 32.1553L104.937 32.4082C105.084 33.5039 105.822 34.115 106.896 34.115C107.286 34.1206 107.673 34.0489 108.034 33.9043C108.087 33.8803 108.143 33.8673 108.201 33.866C108.258 33.8648 108.316 33.8754 108.369 33.8971C108.422 33.9188 108.471 33.9512 108.511 33.9923C108.551 34.0334 108.583 34.0823 108.603 34.1361C108.627 34.1884 108.64 34.2451 108.641 34.3026C108.643 34.3602 108.632 34.4174 108.61 34.4707C108.589 34.524 108.556 34.5723 108.515 34.6126C108.474 34.6529 108.425 34.6843 108.371 34.705C107.902 34.8909 107.401 34.9839 106.896 34.9789C105.19 34.9789 104.052 33.7778 104.052 32.0921V31.6285C104.052 30.2378 104.979 28.826 106.749 28.826C108.329 28.826 109.32 29.9428 109.32 31.7339C109.322 31.7881 109.313 31.8422 109.294 31.8929C109.275 31.9437 109.246 31.9901 109.209 32.0294C109.171 32.0687 109.127 32.1001 109.077 32.1218C109.027 32.1434 108.974 32.1548 108.919 32.1553ZM108.435 31.3335C108.329 30.4907 107.929 29.6899 106.749 29.6899C105.527 29.6899 104.958 30.596 104.916 31.5442L108.435 31.3335Z" fill="black"/>
</g>
<defs>
<clipPath id="clip0_58_153">
<rect width="167.477" height="35" fill="white"/>
</clipPath>
</defs>
</svg>
