<svg width="100" height="35" viewBox="0 0 100 35" fill="none" xmlns="http://www.w3.org/2000/svg">
<g clip-path="url(#clip0_58_110)">
<path d="M39.5638 28.4959H37.4078L34.0659 20.1951H36.0423L38.4858 26.6274L40.9293 20.1951H42.8338L39.5638 28.4959ZM51.8533 24.3276C51.8533 24.5791 51.8533 24.7947 51.8174 25.0103H45.6726C45.9242 26.4836 46.9663 27.1304 48.1521 27.1304C48.9786 27.1304 49.877 26.807 50.5597 26.268L51.4581 27.5616C50.4519 28.4241 49.302 28.7475 48.0443 28.7475C45.5648 28.7475 43.8041 27.0226 43.8041 24.3994C43.8041 21.8122 45.493 20.0514 47.9365 20.0514C50.2722 19.9795 51.8533 21.7403 51.8533 24.3276ZM45.7086 23.6089H50.0207C49.8051 22.3152 49.0505 21.5606 47.9006 21.5606C46.6069 21.5966 45.8882 22.423 45.7086 23.6089ZM59.7589 22.2793C59.2558 21.9559 58.2137 21.5606 57.2076 21.5606C56.2373 21.5606 55.6264 21.9559 55.6264 22.5308C55.6264 23.1058 56.2373 23.2855 56.9919 23.3933L57.8544 23.537C59.6511 23.7885 60.7291 24.5791 60.7291 25.9805C60.7291 27.5617 59.3277 28.6756 56.956 28.6756C56.0936 28.6756 54.6203 28.4959 53.3985 27.5976L54.225 26.2321C54.8359 26.6992 55.6264 27.0945 56.956 27.0945C58.1778 27.0945 58.8605 26.6992 58.8605 26.0883C58.8605 25.6212 58.3934 25.2978 57.4232 25.1541L56.5607 25.0462C54.7281 24.7947 53.7579 23.9323 53.7579 22.6027C53.7579 20.9497 55.0874 19.9436 57.1716 19.9436C58.4653 19.9436 59.687 20.267 60.5135 20.806L59.7589 22.2793ZM68.5268 21.8122H65.3646V25.4056C65.3646 26.5196 65.9396 26.9508 66.6942 26.9508C67.2692 26.9508 67.88 26.6992 68.3831 26.3758L69.1018 27.8132C68.4191 28.2803 67.5926 28.6397 66.5505 28.6397C64.6819 28.6397 63.5679 27.6335 63.5679 25.4056V21.8122H61.9149V20.1592H63.5679V17.6438H65.4006V20.1592H68.5628V21.8122H68.5268ZM78.1572 24.3276C78.1572 24.5791 78.1572 24.7947 78.1213 25.0103H71.9765C72.2281 26.4836 73.2702 27.1304 74.456 27.1304C75.2825 27.1304 76.1809 26.807 76.8636 26.268L77.762 27.5616C76.7558 28.4241 75.6059 28.7475 74.3482 28.7475C71.8687 28.7475 70.108 27.0226 70.108 24.3994C70.108 21.8122 71.7969 20.0514 74.2404 20.0514C76.5761 19.9795 78.1572 21.7403 78.1572 24.3276ZM72.0125 23.6089H76.3246C76.109 22.3152 75.3544 21.5606 74.2045 21.5606C72.9108 21.5966 72.1921 22.423 72.0125 23.6089ZM86.5659 21.2013V16.0267H88.3626V28.4959H86.5659V27.4898C85.9909 28.2085 85.1285 28.7115 83.9427 28.7115C81.6069 28.7115 79.8102 26.8789 79.8102 24.3635C79.8102 21.8481 81.6429 20.0154 83.9427 20.0154C85.1285 19.9795 85.9909 20.4467 86.5659 21.2013ZM81.6788 24.3276C81.6788 25.7649 82.6131 26.9867 84.1942 26.9867C85.7034 26.9867 86.7096 25.8368 86.7096 24.3276C86.7096 22.8183 85.7034 21.6684 84.1942 21.6684C82.6131 21.6684 81.6788 22.8902 81.6788 24.3276ZM99.1788 28.4959H97.3821V27.4898C96.8071 28.2085 95.9447 28.7115 94.7589 28.7115C92.4232 28.7115 90.6264 26.8789 90.6264 24.3635C90.6264 21.8481 92.4591 20.0154 94.7589 20.0154C95.9447 20.0154 96.8071 20.4826 97.3821 21.2372V20.2311H99.1788V28.4959ZM92.495 24.3276C92.495 25.7649 93.4293 26.9867 95.0104 26.9867C96.5197 26.9867 97.5258 25.8368 97.5258 24.3276C97.5258 22.8183 96.5197 21.6684 95.0104 21.6684C93.4293 21.6684 92.495 22.8902 92.495 24.3276ZM27.957 0.359391C24.0043 -1.47326 17.7158 3.70128 13.6193 12.0021C10.2055 6.39635 5.85745 3.16227 2.94677 4.4559C-0.57479 6.00107 -1.18567 13.152 2.29995 21.0935C4.67162 26.3399 7.94164 30.5442 10.9242 32.1972C11.571 33.9939 13.4755 34.9641 14.7332 34.9641C16.2784 34.9641 18.0032 34.2814 19.0094 31.0832C22.3154 29.1787 25.4057 25.19 27.993 19.6561C32.0176 10.8881 32.0176 2.26391 27.957 0.359391ZM10.1696 29.035C10.1696 29.035 0.646976 19.0812 2.04841 10.2413C2.73116 6.07294 5.64184 2.69512 12.685 13.7629C12.685 13.7629 9.41494 21.0935 10.1696 29.035ZM14.3379 32.6643C14.3379 32.6643 15.4878 33.0237 16.3862 32.4128C16.3862 32.3768 15.4878 33.5986 14.3379 32.6643ZM17.033 30.113C14.5895 30.9395 12.685 30.5801 12.685 30.5801C11.571 21.5966 13.9786 15.9549 13.9786 15.9549C18.0751 24.076 17.033 30.113 17.033 30.113ZM27.9211 14.4097C24.4714 25.9446 18.9016 29.035 18.9016 29.035C18.5063 19.9795 15.0207 14.4097 15.0207 14.4097C21.3451 -0.287427 26.7353 1.54522 26.7353 1.54522C26.7353 1.54522 31.3708 2.87479 27.9211 14.4097Z" fill="#0A0F0D"/>
</g>
<defs>
<clipPath id="clip0_58_110">
<rect width="99.1786" height="35" fill="white"/>
</clipPath>
</defs>
</svg>
